<?xml version="1.0" encoding="UTF-8"?>
<svg id="Layer_1" data-name="Layer 1" xmlns="http://www.w3.org/2000/svg" version="1.1" xmlns:xlink="http://www.w3.org/1999/xlink" viewBox="0 0 141 40">
  <defs>
    <style>
      .cls-1 {
        fill: #da0081;
      }

      .cls-1, .cls-2, .cls-3 {
        stroke-width: 0px;
      }

      .cls-2 {
        fill: none;
      }

      .cls-4 {
        clip-path: url(#clippath);
      }

      .cls-3 {
        fill: #200020;
      }
    </style>
    <clipPath id="clippath">
      <rect class="cls-2" x="10.8" y="1.1" width="119.7" height="37.1"/>
    </clipPath>
  </defs>
  <g class="cls-4">
    <g>
      <path class="cls-1" d="M16.9,1.1h-5c-.6,0-1.1.5-1.1,1.1v4.3c0,.6.5,1.1,1.1,1.1h5c.6,0,1.1-.5,1.1-1.1V2.1c0-.6-.5-1.1-1.1-1.1Z"/>
      <path class="cls-3" d="M47.7,1.1h-4.3c-.6,0-1.1.5-1.1,1.1v17.4c0,.4-.5.5-.6.2L31.6,1.5c-.2-.3-.5-.5-.8-.5h-7.2c-.6,0-1.1.5-1.1,1.1v27.7c0,.6.5,1.1,1.1,1.1h4.3c.6,0,1.1-.5,1.1-1.1V12c0-.4.5-.5.6-.2l10.4,18.7c.2.3.5.5.8.5h6.9c.6,0,1.1-.5,1.1-1.1V2.1c0-.6-.5-1.1-1.1-1.1h0Z"/>
      <path class="cls-3" d="M73.8,20.1c0-7.8-5.1-11.7-10.7-11.7s-11.4,5-11.4,11.8,5.2,11.4,11.2,11.4,9.6-3.1,10.5-7.2c.1-.5-.2-1-.9-1h-3.4c-.4,0-.7.2-.9.6-.9,1.9-2.2,2.9-4.9,2.9s-5-1.9-5.3-5.7h14.7c.6,0,1.1-.5,1.1-1.2ZM58.3,17.1c.6-2.8,2.3-4,4.7-4s4.1,1.3,4.4,4h-9.1Z"/>
      <path class="cls-3" d="M129.5,8.9h-4.4c-.6,0-1.1.5-1.1,1.1v19.9c0,.6.5,1.1,1.1,1.1h4.4c.6,0,1.1-.5,1.1-1.1V10c0-.6-.5-1.1-1.1-1.1Z"/>
      <path class="cls-3" d="M97.2,8.9h-4.3c-.6,0-1.1.5-1.1,1.1v1.1c-1.3-1.5-3.4-2.6-6.2-2.6-6.3,0-9.6,5.7-9.6,11.7s2.7,11.1,9.5,11.1,5-1.2,6.4-2.8v8.5c0,.6.5,1.1,1.1,1.1h4.3c.6,0,1.1-.5,1.1-1.1V10c0-.6-.5-1.1-1.1-1.1h0ZM87.3,26.7c-2.9,0-4.9-2.1-4.9-6.6s2-6.9,4.9-6.9,4.9,2.2,4.9,6.9-2,6.6-4.9,6.6Z"/>
      <path class="cls-3" d="M120.3,8.9h-4.3c-.6,0-1.1.5-1.1,1.1v11.2c0,3.6-1.6,4.7-3.7,4.7s-3.7-1.1-3.7-4.7v-11.2c0-.6-.5-1.1-1.1-1.1h-4.3c-.6,0-1.1.5-1.1,1.1v11.7c0,7,3.8,9.8,10.1,9.8s10.1-2.8,10.1-9.8v-11.7c0-.6-.5-1.1-1.1-1.1h0Z"/>
    </g>
  </g>
</svg>