<?xml version="1.0" encoding="UTF-8"?>
<svg id="Layer_1" data-name="Layer 1" xmlns="http://www.w3.org/2000/svg" version="1.1" xmlns:xlink="http://www.w3.org/1999/xlink" viewBox="0 0 312 22">
  <defs>
    <style>
      .cls-1 {
        fill: #f79e1b;
      }

      .cls-1, .cls-2, .cls-3, .cls-4, .cls-5, .cls-6, .cls-7, .cls-8, .cls-9 {
        stroke-width: 0px;
      }

      .cls-2 {
        fill: #231f20;
      }

      .cls-3 {
        fill: #fdb718;
      }

      .cls-4 {
        fill: #f9a51a;
      }

      .cls-5 {
        fill: #ff5f00;
      }

      .cls-6 {
        fill: #eb001b;
      }

      .cls-7 {
        fill: url(#radial-gradient);
      }

      .cls-8 {
        fill: #fff;
      }

      .cls-9 {
        fill: #00589f;
      }
    </style>
    <radialGradient id="radial-gradient" cx="59.7" cy="-251" fx="59.7" fy="-251" r="11" gradientTransform="translate(0 -240) scale(1 -1)" gradientUnits="userSpaceOnUse">
      <stop offset=".3" stop-color="#2d5ca8"/>
      <stop offset=".5" stop-color="#285496"/>
      <stop offset=".7" stop-color="#1f4272"/>
      <stop offset="1" stop-color="#0d2d4d"/>
    </radialGradient>
  </defs>
  <g>
    <circle id="Circle" class="cls-7" cx="59.5" cy="11" r="11"/>
    <g id="PSE">
      <path class="cls-8" d="M62.4,8.3h-2.6s0,0,0,0c-.4,0-1.2.5-1.2,1.4,0,.4.1.9.9,1.2h1.9c0,0,.6.1.6,1,0,.9-.8,1-.9,1.1h-2.9c0,0-.2,0-.2.2s0,.2.2.2h2.9s0,0,0,0c.4,0,1.1-.5,1.2-1.4,0-1.3-.9-1.3-.9-1.3,0,0-1.8,0-1.8,0-.6-.1-.6-.8-.6-.8,0,0,0,0,0,0,0-.8.8-1.1.9-1.1h2.6c0,0,.2,0,.2-.2,0,0,0-.2-.2-.2Z"/>
      <path class="cls-8" d="M66.4,8.3s0,0,0,0h-1.9c-.9,0-1.3,1-1.3,1.1,0,0,0,0,0,0,0,0-.5,2.2-.5,2.9,0,.7.7.9,1,.9,0,0,0,0,0,0h2.7c0,0,.2,0,.2-.2s0-.2-.2-.2h-2.7c0,0-.7,0-.7-.6,0-.3,0-.8.2-1.3h3.8c0,0,.1,0,.2-.2,0,0,.2-1,.2-1.6,0-.7-.8-.9-.8-.9ZM66.7,10.6h-3.6c.1-.5.2-1,.2-1.1,0,0,.4-.8,1-.8h1.9c.1,0,.6.2.6.6,0,.4-.1,1.1-.1,1.4Z"/>
      <path class="cls-8" d="M58.1,9.3c0-.7-.7-1-.9-1h0c-.7,0-1.7,0-1.8,0,0,0,0,0,0,0-.4,0-1,.6-1.2,1.1h0c0,0,0,.1,0,.3,0,.2,0,.4-.1.6,0,.5-.2,1.2-.4,2-.3,1.4-.5,2.8-.5,2.8,0,0,0,.2.1.2,0,0,0,0,0,0,0,0,.1,0,.2-.1.1-.6.3-1.6.5-2.6.4.5.9.6,1,.6,0,0,0,0,0,0h1.7s0,0,0,0c.8-.2,1-1,1-1.1,0,0,0,0,0,0l.5-2.8s0,0,0,0ZM57.8,9.3l-.4,2.7c0,0-.2.7-.8.8h-1.6c0,0-.6,0-.9-.7.2-1.3.5-2.5.5-2.6.2-.4.6-.8.9-.9,0,0,.1,0,.3,0,.2,0,.4,0,.6,0,.4,0,.8,0,.9,0,.2,0,.7.3.6.6Z"/>
    </g>
    <g id="Figures">
      <ellipse class="cls-3" cx="50.6" cy="7.7" rx=".5" ry=".5"/>
      <path class="cls-3" d="M50.2,6.2c0-.2-.1-.4-.3-.5-.2.3-.3.6-.4.9,0,0,.2.1.3.1.3,0,.5-.2.5-.5Z"/>
      <path class="cls-3" d="M49.2,7.7c0-.1,0-.3-.1-.3,0,.3-.2.5-.3.8.2,0,.4-.2.4-.5Z"/>
      <ellipse class="cls-3" cx="50.7" cy="13.7" rx=".5" ry=".5"/>
      <path class="cls-3" d="M49.1,13.7c0-.2-.1-.4-.3-.4,0,.2.1.5.2.7,0,0,.1-.2.1-.3Z"/>
      <path class="cls-3" d="M50.2,15.4c0-.3-.2-.5-.5-.5s-.3.1-.4.3c0,.2.2.5.3.7,0,0,0,0,.1,0,.3,0,.5-.2.5-.5Z"/>
      <path class="cls-3" d="M50.9,12.2h-.9c0-.1-.2-.3-.4-.3s-.5.2-.5.5.2.5.5.5.4,0,.4-.3h1l1-1.8h1.5v-.2h-2.5l-1-1.8h-1.4c0,.1,0,.2,0,.4h1.3l.8,1.4h-2.2c0,0,0,.2,0,.2h3.3l-.8,1.4Z"/>
    </g>
  </g>
  <g>
    <polygon class="cls-9" points="99.3 21.7 102.9 .5 108.7 .5 105.1 21.7 99.3 21.7"/>
    <path class="cls-9" d="M126,1c-1.1-.4-2.9-.9-5.2-.9-5.7,0-9.7,2.9-9.8,7,0,3,2.9,4.7,5.1,5.8,2.3,1,3,1.7,3,2.6,0,1.4-1.8,2.1-3.5,2.1s-3.5-.3-5.4-1.1l-.7-.3-.8,4.7c1.4.6,3.8,1.1,6.4,1.1,6.1,0,10-2.8,10.1-7.2,0-2.4-1.5-4.3-4.9-5.8-2-1-3.3-1.6-3.2-2.6,0-.9,1-1.8,3.3-1.8,1.9,0,3.3.4,4.3.8l.5.2.8-4.6"/>
    <path class="cls-9" d="M140.9.5h-4.5c-1.4,0-2.4.4-3,1.8l-8.6,19.4h6.1s1-2.6,1.2-3.2c.7,0,6.6,0,7.4,0,.2.7.7,3.2.7,3.2h5.4L140.9.5M133.7,14.2c.5-1.2,2.3-5.9,2.3-5.9,0,0,.5-1.2.8-2l.4,1.8s1.1,5.1,1.3,6.1h-4.8Z"/>
    <path class="cls-9" d="M94.4.5l-5.7,14.5-.6-2.9c-1.1-3.4-4.3-7.1-8-8.9l5.2,18.6h6.1S100.6.5,100.6.5h-6.1"/>
    <path class="cls-4" d="M83.5.5h-9.3v.4c7.2,1.8,12,6,14,11.1l-2-9.7c-.4-1.3-1.4-1.7-2.6-1.8"/>
  </g>
  <g>
    <rect class="cls-5" x="165.4" y="2.4" width="9.6" height="17.3"/>
    <path class="cls-6" d="M166,11c0-3.4,1.5-6.6,4.2-8.6-4.8-3.7-11.7-2.9-15.4,1.8-3.7,4.8-2.9,11.7,1.8,15.4,4,3.1,9.6,3.1,13.6,0-2.7-2.1-4.2-5.3-4.2-8.6Z"/>
    <path class="cls-1" d="M188,11c0,6.1-4.9,11-11,11-2.5,0-4.9-.8-6.8-2.3,4.8-3.8,5.6-10.7,1.8-15.4-.5-.7-1.2-1.3-1.8-1.8,4.8-3.7,11.7-2.9,15.4,1.8,1.5,1.9,2.3,4.3,2.3,6.8Z"/>
    <path class="cls-1" d="M186.9,17.8v-.4h.1c0,0-.4,0-.4,0h0c0,0,.1,0,.1,0v.4h0ZM187.6,17.8v-.4h-.1v.3c-.1,0-.3-.3-.3-.3h-.1v.4h0v-.3.3h.2v-.3c.1,0,.1.3.1.3h0Z"/>
  </g>
  <g>
    <path class="cls-2" d="M217,11c-1.1,6.1-7,11-13.1,11s-10.1-4.9-8.9-11C196.2,4.9,202.1,0,208.1,0s10.1,4.9,8.9,11M211.2,1.7c3.2,1.3,5,4.7,4.3,8.6-.2.8-.4,1.6-.8,2.4,0,0,0,0,0,0-.4.8-.8,1.6-1.4,2.3,0,0,0,0,0,0,0,0,0,0,0,.1-1.3,1.6-3.1,2.9-5.1,3.7h0s0,0-.1,0c0,0,0,0-.1,0,0,0,0,0,0,0h0s0,0,0,0h0s0,0,0,0c0,0,0,0,0,0v-1c1-.2,1.9-.6,2.6-1.3.9-.8,1.3-2,1.2-3.3,0-1-.5-1.9-1.2-2.5-.8-.7-1.7-1.2-2.6-1.6h-.1c-.7-.4-1.4-.8-2-1.2-.4-.2-.6-.6-.7-1,0-.2,0-.4.2-.6.4-.3.8-.4,1.3-.4h0c.9,0,1.7.3,2.6.7,0,0,.1,0,.2,0,.5,0,.9-.4,1.1-.8.2-.3.3-.7.3-1,0-.1,0-.3-.2-.4-.8-.5-1.7-.9-2.6-1,0,0,0,0,0,0,0,0,0,0,0,0,0,0,0-1.2.1-1.6,0-.2,0-.3,0-.5,0-.2-.2-.3-.4-.3,0,0,0,0,0,0-1.4.1-2.7.5-3.9,1.1h0c-3.5,1.7-6.3,5-7,8.8-.8,4.3,1.2,8,4.8,9.4-3.2-1.3-5-4.7-4.3-8.6.2-.9.4-1.7.8-2.5,0,0,0,0,0,0,.2-.4.4-.7.6-1.1,1.3-2.1,3.2-3.8,5.4-4.8h0c.4-.2.8-.3,1.2-.5,0,0,0,0,0,0h0s0,0,0,0h0s0,0,0,0v.6c-.9.2-1.7.5-2.4,1.1-1.6,1.5-1.7,3.9-.3,5.6.7.8,1.6,1.4,2.5,1.8h0c.8.4,1.6.8,2.3,1.2.6.4.7.7.7,1h0c0,.3,0,.6-.3.7-.4.3-.8.4-1.3.4h0c-1.1,0-2.3-.3-3.2-.9h0s0,0,0,0c-.2-.1-.4-.2-.6-.2h0c-.2,0-.4,0-.5.2-.1.1-.2.3-.3.5-.2.4-.3.8-.2,1.3,0,0,0,.2,0,.3,0,.1,0,.2.2.3,1,.7,2.1,1.1,3.2,1.2,0,0,0,0,0,0,0,0,0,0,0,0,0,.6,0,1.2,0,1.8,0,.2,0,.4,0,.6,0,0,0,.1,0,.2,0,0,.2.1.3.1,0,0,0,0,0,0,0,0,0,0,0,0,.2,0,.4,0,.6,0h0c.7-.1,1.5-.3,2.1-.6,0,0,0,0,0,0,.1,0,.2,0,.3-.1,0,0,0,0,0,0,.1,0,.2,0,.3-.2,0,0,0,0,0,0,3.6-1.6,6.4-5,7.1-8.9.8-4.3-1.2-8-4.8-9.4"/>
    <path class="cls-2" d="M220.8,12.1c0,1.4,1,2.4,2.5,2.4.7,0,1.5-.2,2.1-.6l.5,1.2c-.8.5-1.8.8-2.8.8-2.9,0-4.1-2.1-4.1-4.3s1.4-4.3,3.6-4.3,3.6,1.7,3.6,4.4v.4h-5.3ZM224.2,10.8c0-1.1-.5-2.1-1.7-2.1s-1.8,1-1.8,2.1h3.5Z"/>
    <path class="cls-2" d="M227.8,8.9h-.9l-.6-1.4h1.5v-1.2c0-2,1.2-2.9,2.7-2.9.5,0,1.1.1,1.6.3l-.4,1.5c-.3-.1-.7-.2-1-.2-.7,0-1.1.5-1.1,1.3v1.3h2.3l-.6,1.4h-1.7v6.9h-1.8v-6.9Z"/>
    <path class="cls-2" d="M233.8,12.1c0,1.4,1,2.4,2.5,2.4.7,0,1.5-.2,2.1-.6l.5,1.2c-.8.5-1.8.8-2.8.8-2.9,0-4.1-2.1-4.1-4.3s1.4-4.3,3.6-4.3,3.6,1.7,3.6,4.4v.4h-5.3ZM237.3,10.8c0-1.1-.5-2.1-1.7-2.1s-1.8,1-1.8,2.1h3.5Z"/>
    <path class="cls-2" d="M240.1,11.7c0-2.5,1.8-4.4,4.3-4.4.8,0,1.5.2,2.2.5v1.6c-.6-.4-1.3-.6-2-.6-1.6,0-2.6,1.2-2.6,2.9s1,2.8,2.5,2.8c.7,0,1.4-.2,2-.6l.5,1.3c-.8.5-1.8.8-2.7.8-2.6,0-4.1-1.9-4.1-4.3"/>
    <path class="cls-2" d="M260.4,7.5l-2.1,6.1h0s-1.5-3.7-2.1-4.9c-.1-.3-.5-1.2-2-1.2h-3.6v-2.5l-1.8.6v1.9h-1.5v1.4h1.5v4.9c0,1.3.8,2.1,2.2,2.1.8,0,1.6-.2,2.3-.6l-.6-1.3c-.4.3-.8.4-1.3.4-.5,0-.8-.3-.8-1.1v-4.5h3.7l3.1,6.8c-.6,2-1.4,2.7-2.4,2.7-.4,0-.8-.1-1.2-.3l-.5,1.5c.5.2,1.1.4,1.7.4,1.5,0,2.8-.4,4-3.8l3.2-8.7h-1.9Z"/>
  </g>
</svg>