<svg xmlns="http://www.w3.org/2000/svg" width="1000" height="1000" viewBox="0 0 1000 1000" fill="none"><path d="M431.1 618C424.6 621.5 422.4 629.6 425.6 636.1C428.8 642.6 436.9 644.8 443.7 641.6C450.2 638 452.4 629.9 449.2 623.5C445.3 617 437.6 614.4 431.1 618ZM493.9 635.4C490 628 480.6 625.4 473.1 629.3C465.7 633.2 463.1 642.6 467 650C470.9 657.4 480.3 660 487.7 656.1C495.1 652.3 497.7 642.9 493.9 635.4ZM481.9 373.1C490.3 368.5 493.2 358.2 488.7 349.8C484.5 341.4 473.8 338.4 465.4 343C457 347.2 454.1 357.5 458.6 365.9C463.1 374.7 473.5 377.6 481.9 373.1ZM505.5 364.3C509.4 371.8 518.4 374.4 525.9 370.5C533.6 366.6 535.9 357.2 532 349.8C528.1 342.3 518.8 339.7 511.6 343.6C504.2 347.5 501.6 356.9 505.5 364.3ZM533.6 656.8C542.1 652.3 545 641.6 540.4 633.5C535.9 625.1 525.6 622.2 517.1 626.7C508.7 630.9 505.8 641.3 510.4 650C515.2 658.1 525.6 661.3 533.6 656.8ZM356.4 444.6C360.2 451.7 369.6 454.6 377.1 450.7C384.5 446.8 387.1 437.4 383.2 430C379.3 422.9 369.9 420 362.5 423.9C355.1 428.1 352.1 437.1 356.4 444.6ZM377.4 576.6C381.9 574 383.9 568.1 381.3 563.6C378.7 559.4 373.2 557.5 368.3 559.7C363.5 562 361.9 567.8 364.4 572.7C367 577.5 372.5 579.2 377.4 576.6ZM410.1 598.6C407.1 593.1 400.4 591.1 394.5 594C389 596.9 386.8 604.1 389.7 609.6C392.6 615.1 399.4 617.3 405.2 614.1C411 611.2 413 604.4 410.1 598.6ZM387.4 385C379 389.6 375.8 399.9 380.6 408.3C385.1 416.4 395.2 419.7 403.6 415.1C412 410.6 415.2 400.2 410.7 391.8C405.9 383.7 395.5 380.5 387.4 385ZM368 520.3C364.8 514.8 358.3 512.5 352.5 515.4C347 518.6 344.7 525.4 347.9 530.9C351.2 536.4 358 538.7 363.5 535.5C368.6 532.9 370.9 525.8 368 520.3ZM555.6 358.2C549.2 361.7 546.9 369.8 550.1 376.3C553.7 382.8 561.8 385 568.3 381.5C574.7 377.9 577 369.8 573.8 363.4C570.2 356.9 561.8 354.6 555.6 358.2ZM345 486.9C348.6 493.4 356.7 495.7 363.1 492.4C369.6 488.9 371.9 480.8 368.6 474.3C364.8 467.9 357 465.6 350.2 469.2C344.1 472.4 341.8 480.8 345 486.9ZM440.5 390.2C449.9 385 453.4 373.4 448.2 364C443.1 354.6 431.4 351.1 422 356.2C412.6 361.1 409.1 373.1 414.3 382.4C419.1 391.5 431.1 395.1 440.5 390.2ZM631.4 479.5C634.3 485 641.4 486.9 646.6 484.4C652.1 481.1 654.3 474.3 651.4 468.8C648.2 463.3 641.4 461.1 635.9 464.3C630.7 466.9 628.4 474 631.4 479.5ZM621.6 422.9C617.4 425.5 615.5 431.3 618.1 435.8C620.7 440.7 626.5 442.3 630.7 439.7C635.6 437.1 637.2 431.6 634.6 427.1C632 422.2 626.5 420.6 621.6 422.9ZM654 512.5C650.4 506 642.7 503.8 635.9 507C629.4 510.6 627.1 518.7 630.4 525.1C633.9 531.6 642 533.9 648.5 530.3C655.3 527.1 657.6 519 654 512.5ZM643 554.9C639.1 547.8 629.7 544.9 622.3 548.7C614.9 552.6 612.3 562.3 616.1 569.4C620 576.6 629.4 579.5 636.5 575.6C644.3 571.7 646.9 562.3 643 554.9ZM593.8 385.7C588 388.6 586.1 395.4 589 401.2C591.9 406.7 598.7 409 604.5 406.1C610 402.8 612.3 396 609.4 390.5C606.1 384.4 599.3 382.4 593.8 385.7ZM558.9 609.6C549.5 614.7 545.9 626.4 551.1 635.8C556.3 645.1 567.9 648.7 577.3 643.5C586.7 638.4 590.3 626.4 585.1 617.3C580.2 607.9 568.3 604.4 558.9 609.6ZM611.9 614.1C620.4 609.9 623.3 599.2 618.7 591.1C614.2 582.7 603.9 579.8 595.4 584.3C587 588.9 584.1 599.2 588.6 607.6C593.2 615.7 603.5 618.9 611.9 614.1ZM681.5 448.1C689.6 450.4 698 445.9 700.3 437.8C702.5 429.7 698 421.3 689.9 419C681.8 416.7 673.1 421.3 671.1 429.4C668.6 437.1 673.4 445.9 681.5 448.1ZM531.4 303.2C527.5 316.4 534.9 330.4 548.2 334.2C561.5 338.1 575.4 330.7 579.3 317.4C583.5 303.8 575.7 290.2 562.4 286C548.9 282.1 534.9 289.9 531.4 303.2ZM364.1 339.1C361.9 347.2 366.4 355.6 374.5 357.9C382.6 360.1 391 355.6 393.2 347.5C395.5 339.4 391 331.3 382.9 328.7C375.1 326.5 366.7 331 364.1 339.1ZM634.9 661C637.2 652.9 632.6 644.2 624.9 642.2C616.8 640 608.4 644.5 605.8 652.6C603.5 660.4 608.1 668.8 616.1 671.4C623.9 673.3 632.6 668.8 634.9 661ZM632.3 343C635.9 331.6 629.1 319.4 617.8 315.8C606.1 312.2 593.8 319 590.6 330.7C587 342 593.8 354.3 605.1 357.9C616.8 361.1 628.8 354.6 632.3 343ZM381.9 684C393.6 687.2 405.5 680.7 409.1 669.4C412.3 658.1 405.9 645.8 394.2 642.2C382.6 638.7 370.6 645.5 367.4 657.1C363.8 668.4 370.3 680.4 381.9 684ZM337.6 639C347.9 642.2 358.6 636.4 361.9 626.1C364.8 616 358.9 605 348.6 601.8C338.2 598.9 327.6 604.7 324.6 615.1C321.4 625.4 327.2 636.1 337.6 639ZM333.1 399.9C339.5 401.9 346.3 398 348.3 391.5C350.2 385 346.3 378.2 339.9 376.3C333.4 374.4 326.3 378.2 324.6 384.7C322.7 391.2 326.6 398 333.1 399.9ZM427.9 332.3C437.9 335.5 448.9 329.7 451.8 319.4C454.7 309.3 448.9 298.3 438.9 295.4C428.5 292.5 417.8 298.3 414.6 308.4C411.7 318.4 417.5 329.4 427.9 332.3ZM488 323.2C499.7 326.8 511.6 320 515.2 308.7C518.4 297 512 284.7 500.6 281.5C489 277.9 477 284.7 473.5 296.1C469.6 307.7 476.4 319.7 488 323.2ZM674.7 384.4C677.9 374.4 672.1 363.4 661.8 360.4C651.7 357.9 640.7 363.7 637.8 373.7C634.6 384.1 640.7 394.7 650.8 397.6C661.1 400.9 671.5 394.7 674.7 384.4ZM309.1 580.8C317.2 583.4 325.6 578.5 327.9 570.4C330.1 562.3 325.6 553.9 317.5 551.6C309.4 549.1 300.7 553.9 298.8 561.7C296.8 570.1 301 578.5 309.1 580.8ZM709 497.6C710.9 491.1 707.1 484.4 700.6 482.4C694.1 480.5 687 484.4 685.4 490.8C683.4 497.3 687.3 504.4 693.8 506C700.3 508 707.1 504.1 709 497.6ZM307.2 453.3C312 454.6 317.2 452 318.5 446.8C319.8 442 317.2 436.8 312.3 435.5C307.5 434.2 302.3 436.8 301 441.6C299.7 446.5 302.3 451.7 307.2 453.3ZM313.6 508.9C315.6 502.5 311.7 495.7 305.2 493.7C298.8 491.8 292 495.7 289.7 502.1C287.8 508.6 291.6 515.4 298.1 517.4C304.9 519.3 311.7 515.4 313.6 508.9ZM686.7 564.6C691.5 565.9 696.7 563.3 698 558.4C699.3 553.6 696.7 548.4 691.8 547.1C687 545.8 681.8 548.4 680.5 553.3C679.2 558.1 681.8 563 686.7 564.6ZM468 696.6C471.8 683.3 464.4 669.4 451.1 665.5C437.9 661.6 424 669.1 420.1 682.4C416.2 695.9 423.6 709.5 436.9 713.4C450.2 717.3 464.1 709.9 468 696.6ZM571.5 667.5C561.5 664.2 550.5 670.4 547.2 680.4C544.6 690.4 550.5 701.4 560.5 704.4C570.8 707.6 581.5 701.8 584.4 691.4C587.3 681.4 581.8 670.7 571.5 667.5ZM666.3 599.5C659.8 597.6 652.7 601.5 651.1 607.9C649.1 614.7 653 621.5 659.2 623.5C666 625.4 672.8 621.5 674.7 615.1C676.3 608.6 672.8 601.5 666.3 599.5ZM511.3 676.9C499.7 673.3 487.7 680.1 484.1 691.4C480.6 702.7 487.4 714.7 498.7 718.3C510.3 721.8 522.3 715 525.9 703.7C529.4 692.1 523 680.1 511.3 676.9ZM632.3 280.9C643 269.5 642.3 252.1 631.3 241.4C620 230.7 602.6 231.4 591.9 242.4C581.2 253.7 581.8 271.1 592.8 281.8C604.2 292.5 622 291.9 632.3 280.9ZM658.2 331.3C671.1 343.6 691.5 342.6 703.5 330C715.8 317.1 715.1 296.7 702.2 284.4C689.3 272.1 668.9 273.1 656.9 285.7C644.6 299 645.3 319.4 658.2 331.3ZM341.1 668.4C328.2 656.1 307.8 657.1 295.8 669.7C283.6 682.7 284.2 702.7 297.1 715C310.1 727.3 330.5 726.7 342.4 713.7C354.4 700.8 353.8 680.4 341.1 668.4ZM252.5 479.8C259.9 472.1 259.3 459.4 251.8 452.3C243.8 444.9 231.5 445.2 224.3 453.3C217.2 461.4 217.2 473.4 225 480.8C232.8 488.2 245.1 487.6 252.5 479.8ZM288.7 645.8C299.4 634.5 298.8 617 287.8 606.3C276.4 595.6 259 596.3 248.3 607.6C237.6 618.6 238.3 636.4 249.3 647.1C260.6 657.1 278.1 656.8 288.7 645.8ZM258.6 565.9C268 555.9 267.4 540.3 257.7 530.6C247.6 521.2 232.1 521.9 222.7 531.6C213.3 541.6 214 557.5 223.7 566.5C233.7 576.2 249.3 575.9 258.6 565.9ZM551.1 255.6C560.5 245.6 559.8 230.1 550.1 220.7C540.1 211.3 524.6 211.9 515.2 221.6C505.8 231.7 506.5 247.2 516.2 256.6C525.9 266 541.7 265.6 551.1 255.6V255.6ZM464.7 254.3C472.2 246.6 471.8 234.3 463.8 226.8C455.7 219.4 443.7 220 436.3 227.8C428.8 235.6 429.1 247.9 437.2 255.3C445 262.4 457.3 262.1 464.7 254.3ZM534.6 745.4C527.2 753.2 527.5 765.5 535.3 772.9C543 780.4 555.3 779.7 562.8 772C570.2 764.2 569.9 751.9 562.1 744.5C554 737 541.7 737.4 534.6 745.4ZM448.2 744.1C438.8 754.2 439.5 770 449.2 779.1C459.2 788.5 474.8 788.1 484.1 778.1C493.5 768.1 493.2 752.2 483.2 743.2C473.5 733.8 457.6 734.1 448.2 744.1ZM726.5 601.5C720.3 607.9 721 617.6 727.1 623.8C733.6 629.9 743.6 629.3 749.8 623.1C755.9 617 755.3 607 749.1 600.8C742.3 594.7 732.3 595.3 726.5 601.5ZM367 719.2C356.3 730.2 357 748 368 758.4C379 768.7 396.8 768.4 407.5 757.4C418.1 746.1 417.5 728.6 406.5 717.9C395.2 707.3 377.4 707.9 367 719.2ZM699.6 672C694.8 667.1 687.3 667.5 682.8 672.3C678.6 677.2 678.6 684.6 683.4 689.2C688.3 693.4 695.7 693.4 700.3 688.5C704.5 684 704.5 676.5 699.6 672ZM637.5 741.6C643.6 735.1 643 725.4 636.8 719.2C630.4 713.1 620.7 713.4 614.5 719.9C608.7 726.4 609 736.4 615.2 742.2C621.6 748.4 631.7 748 637.5 741.6ZM751.1 392.1C761.7 380.8 761.1 363.4 749.8 352.7C738.8 342 721 343 710.3 354C699.6 365.3 700.3 382.8 711.6 393.4C722.9 404.1 740.7 403.5 751.1 392.1ZM746.5 519.9C739.4 527.7 739.7 540 747.5 547.4C755.6 554.9 767.6 554.6 775 546.5C782.4 538.7 782.1 526.4 774 519C766.6 511.5 754 512.2 746.5 519.9ZM775.3 432.6C765.3 423.2 749.8 423.9 740.4 433.6C731 443.6 731.6 459.1 741.3 468.5C751.1 477.9 766.9 477.2 776.3 467.5C786 457.8 785.3 442.3 775.3 432.6ZM299.7 328.1C304.6 332.6 312 332.3 316.6 327.4C321.1 322.6 320.8 315.1 316.2 310.6C311.4 306.4 303.9 306.4 299.4 311.3C294.9 316.1 294.9 323.6 299.7 328.1ZM272.9 398.3C278.7 391.8 278.4 382.1 272.2 376C265.8 369.8 256.1 370.5 249.9 376.6C243.8 383.1 244.4 392.8 250.6 398.9C256.7 404.8 266.7 404.4 272.9 398.3ZM361.5 257.9C355.4 264.4 356 274.1 362.2 280.2C368.6 286.4 378.3 285.7 384.5 279.6C390.3 273.4 390 263.4 383.8 257.2C377.4 251.1 367.3 251.4 361.5 257.9ZM203.3 305.1C210.1 314.5 223.7 316.8 233.4 310C243.1 303.2 245.4 289.6 238.6 280.2C231.8 270.5 218.5 268.2 208.5 275C198.8 282.1 196.5 295.4 203.3 305.1ZM701.6 782.6C707.4 789.8 717.7 791.1 725.2 785.2C732.3 779.4 733.6 769.1 727.8 761.6C722.3 754.5 711.6 753.2 704.1 759C697 764.9 696.1 775.5 701.6 782.6ZM716.8 252.4C733.6 247.2 743 228.8 737.8 211.9C732.3 194.8 714.5 185.4 697.3 190.6C680.2 195.8 670.8 213.9 676 231C681.5 248.2 699.6 257.6 716.8 252.4V252.4ZM621.3 152.1C607.4 155.6 599 169.6 602.6 183.8C606.1 197.7 620.3 206.1 634.3 202.6C648.2 199 656.6 184.8 653 170.9C649.1 156.9 635.2 148.5 621.3 152.1ZM518.8 159.2C521 170.9 532.3 178.3 544 176C555.6 173.8 563.1 162.1 560.8 150.8C558.6 139.1 547.2 131.7 535.6 134C523.9 136.2 516.5 147.2 518.8 159.2ZM833.9 398C853.6 389.6 862.7 366.6 854.3 346.9C845.8 327.1 822.9 318.1 803.1 326.5C783.4 334.9 774.3 357.9 782.8 377.6C791.2 397.3 814.1 406.7 833.9 398ZM836.1 649.7C848.4 641.9 852 626.1 844.2 613.8C836.8 601.8 820.6 598.2 808.6 605.7C796.3 613.4 792.8 629.6 800.6 641.6C808 653.9 824.2 657.8 836.1 649.7ZM547.6 827C538.5 828.3 532 836.7 533.3 846.1C534.6 855.4 543 861.6 552.4 860.3C561.5 859 567.9 850.6 566.6 841.2C565.3 831.8 556.6 825.7 547.6 827ZM875.3 433.9C866.6 416.1 844.9 409 827.4 417.7C809.9 426.4 802.5 447.8 811.2 465.6C820 483.4 841.3 490.5 859.1 481.8C876.6 472.7 884 451.7 875.3 433.9ZM738.4 297C745.2 315.5 765.9 324.9 784.4 318.1C802.8 311.3 812.2 290.6 805.4 272.1C798.6 253.7 777.9 244.3 759.5 251.1C741 257.9 731.6 278.3 738.4 297ZM631 804.6C622.9 808.2 619.4 817.3 622.9 825C626.5 833.1 635.6 836.7 643.3 833.1C651.4 829.6 655 820.5 651.4 812.7C647.8 804.6 638.8 801.1 631 804.6ZM872.7 524.5C864 508.9 844.2 503.1 828.7 512.2C813.2 520.9 807.3 540.7 816.4 556.2C825.5 571.7 844.9 577.2 860.4 568.5C875.9 559.8 881.8 540 872.7 524.5ZM282.3 747.4C265.4 752.6 255.7 770.7 261.2 787.8C266.4 805 284.5 814.4 301.7 809.2C318.8 804 328.2 785.9 323 768.7C317.8 751.6 299.4 742.2 282.3 747.4V747.4ZM377.7 847.7C391.6 844.1 400 830.2 396.5 816C392.9 802.1 378.7 793.6 364.8 797.2C350.8 800.8 342.8 814.7 346 828.9C349.9 842.8 363.8 851.2 377.7 847.7ZM297.5 217.1C291.6 210 281.3 208.7 273.8 214.5C266.7 220.4 265.4 230.7 271.3 238.2C277.1 245.3 287.4 246.6 294.9 240.7C301.7 234.9 303 224.2 297.5 217.1V217.1ZM795.7 695C788.9 685.3 775.3 683 765.6 689.8C755.9 696.6 753.6 710.2 760.4 719.9C767.2 729.6 780.8 731.9 790.5 725.1C800.2 717.9 802.5 704.7 795.7 695ZM368.3 195.1C376.1 191.9 380 182.5 376.4 174.7C372.8 166.7 363.8 163.1 356 166.7C347.9 170.2 344.4 179.3 347.9 187C351.2 194.8 360.6 198.7 368.3 195.1V195.1ZM260.6 702.7C253.8 684.3 233.1 674.9 214.6 681.7C196.2 688.5 186.8 709.2 193.6 727.7C200.4 746.4 221.1 755.5 239.6 748.7C258 741.9 267.4 721.5 260.6 702.7ZM126.3 475.3C135.1 490.8 154.8 496.7 170.3 487.6C185.8 478.9 191.7 459.1 182.6 443.6C173.9 428.1 154.1 422.6 138.6 431.3C123.1 440 117.6 459.8 126.3 475.3V475.3ZM480.3 840.9C478 829.2 466.7 821.8 455 824.1C443.4 826.3 435.9 837.6 438.2 849.3C440.5 860.9 451.8 868.4 463.4 866.1C475.1 863.5 482.5 852.5 480.3 840.9ZM451.8 172.8C460.8 171.5 467.3 162.8 466 153.7C464.7 144.3 456.3 138.2 446.9 139.5C437.9 140.8 431.4 149.2 432.7 158.6C434 167.9 442.4 174.1 451.8 172.8V172.8ZM190.7 393.8C203 386 206.6 369.8 198.8 357.9C191 345.6 174.8 342.3 162.9 349.8C150.6 357.5 147 373.4 154.8 385.7C162.6 397.7 178.4 401.2 190.7 393.8ZM196.2 673C215.9 664.6 225 641.6 216.3 621.9C207.8 602.1 184.9 593.1 165.1 601.5C145.4 609.9 136.3 632.9 144.8 652.6C153.5 672.7 176.5 681.7 196.2 673ZM124.1 565.9C132.8 583.7 154.1 590.8 171.9 582.1C189.4 573.3 196.8 552 188.1 534.2C179.4 516.4 158 509.3 140.2 518C122.4 527.1 115 548.4 124.1 565.9ZM880.5 319C903.4 321.3 923.8 304.8 926.1 282.2C928.3 259.2 911.8 238.8 889.2 236.5C866.6 234.3 845.8 250.4 843.6 273.4C841 296.1 857.5 316.4 880.5 319ZM944.2 450.1C916.7 450.1 894.4 472.1 894.4 499.9C894.4 527.4 916.7 549.7 944.2 549.7C971.7 549.7 994 527.4 994 499.9C994 472.4 971.7 450.1 944.2 450.1ZM883.7 382.1C882.4 407.4 901.8 429 927.1 430.3C952.3 431.6 974 412.2 975.3 387C976.6 361.4 957.1 340.4 931.9 338.8C906.3 337.8 885 356.9 883.7 382.1ZM609 908.8C597.7 912.1 590.9 923.7 593.8 935C597.1 946.4 608.7 953.2 620 950.2C631.3 947.3 638.5 935.7 635.2 924C632.3 912.4 620.7 905.6 609 908.8ZM809 781.4C790.8 784.3 778.6 801.4 781.1 819.5C784.1 837.7 801.2 849.9 819.3 847C837.4 844.1 849.7 827.3 846.8 808.9C843.9 791.1 827.1 778.8 809 781.4ZM880.5 681.1C857.8 683.3 841 704 843.6 726.7C845.8 749.7 866.6 765.8 889.2 763.6C912.2 761.3 928.7 740.9 926.1 717.9C923.5 695 903.1 678.8 880.5 681.1ZM716.1 858.4C701.2 861.6 691.8 876.2 694.8 890.7C698 905.6 712.6 915 727.4 912.1C742.3 909.2 751.7 894.6 748.5 879.4C745.6 864.5 731 855.1 716.1 858.4ZM926.7 569.4C901.8 570.7 882.4 592.4 883.4 617.7C884.7 643.2 906.3 662.3 931.6 661C956.8 659.7 976.2 638.4 974.9 612.8C973.6 587.2 952 567.8 926.7 569.4ZM716.4 141.4C731 144.7 745.6 134.9 748.8 120.1C752 105.2 742.3 90.6 727.8 87.7C712.9 84.5 698.3 93.9 695.1 108.7C692.2 123.6 701.6 138.2 716.4 141.4V141.4ZM72.3 430.3C97.5 429 116.9 407.4 115.6 382.1C114.3 356.6 92.7 337.5 67.4 338.8C42.5 340.1 22.8 361.4 24.1 387C25.4 412.5 47.1 431.9 72.3 430.3V430.3ZM118.6 318.7C141.2 316.4 158 295.7 155.4 273.1C153.2 250.1 132.5 233.6 109.8 236.2C86.8 238.5 70.3 258.9 72.9 281.8C75.5 304.5 95.9 321 118.6 318.7ZM104.3 499.9C104.3 472.4 82 450.1 54.5 450.1C27.3 450.1 5 472.4 5 499.9C5 527.4 27.3 549.7 54.8 549.7C82 549.7 104.3 527.4 104.3 499.9ZM282.6 141.4C297.5 138.2 306.8 123.6 303.9 108.7C300.7 93.9 286.1 84.5 271.6 87.7C256.7 90.9 247.3 105.2 250.2 120.1C253.5 135.3 268 144.7 282.6 141.4V141.4ZM390 90.9C401.3 87.7 408.4 76.1 405.2 64.7C402 53.4 390.3 46.6 379 49.5C367.7 52.4 360.6 64.1 363.8 75.7C366.7 87.4 378.7 94.2 390 90.9ZM115.3 617.6C116.6 592.4 97.2 571.1 72 569.4C47.1 567.8 25.4 587.2 24.1 612.5C22.8 638 42.2 659.1 67.4 660.7C92.4 662 114 642.9 115.3 617.6V617.6ZM190.4 218.4C208.5 215.5 220.8 198.4 218.2 180.2C215.3 162.1 198.1 149.8 180 152.7C161.9 155.7 149.6 172.5 152.5 190.9C155.1 208.7 172.3 221 190.4 218.4V218.4ZM809 218.1C827.1 221.3 844.2 208.7 847.1 190.6C850.1 172.1 837.4 155.3 819.6 152.4C801.5 149.5 784.4 161.8 781.5 179.9C778.2 198 790.5 215.2 809 218.1ZM499.7 75.1C510.7 75.1 519.7 66.4 519.7 55C519.7 44 511 35 499.7 35C488.7 35 479.6 43.7 479.6 55C479.6 66.4 488.7 75.1 499.7 75.1ZM118.6 681.1C95.9 678.5 75.5 695.3 72.9 717.9C70.7 740.9 87.2 761.3 109.8 763.6C132.5 765.8 153.2 749.6 155.4 726.7C157.7 703.7 141.2 683.3 118.6 681.1V681.1ZM609 90.9C620.4 94.2 632.3 87.4 635.2 75.7C638.5 64.4 631.4 52.4 620 49.5C608.7 46.3 596.7 53.1 593.8 64.7C590.9 76.1 597.7 87.7 609 90.9V90.9ZM499.4 924.7C488.4 924.7 479.3 933.4 479.3 944.7C479.3 955.7 488 964.8 499.4 964.8C510.4 964.8 519.4 956.1 519.4 944.7C519.7 933.4 510.7 924.7 499.4 924.7ZM190.1 781.7C171.9 778.8 155.1 791.1 152.2 809.2C149.3 827.6 161.6 844.4 179.7 847.4C197.8 850.3 215 838 217.9 819.9C220.8 801.7 208.5 784.6 190.1 781.7V781.7ZM390 908.8C378.7 905.6 366.7 912.4 363.8 924C360.6 935.4 367.7 947.3 379 950.2C390.3 953.1 402.3 946.7 405.2 935C408.4 923.7 401.3 911.7 390 908.8ZM282.6 858.4C268 855.1 253.1 864.5 250.2 879.4C247 894.3 256.7 908.8 271.3 912.1C286.1 915.3 300.7 905.6 303.9 890.7C307.2 876.1 297.5 861.6 282.6 858.4Z" fill="white"></path></svg>