<svg xmlns="http://www.w3.org/2000/svg" width="1000" height="1000" viewBox="0 0 1000 1000" fill="none"><g clip-path="url(#clip0_1_19)"><path d="M741.1 293.6C741.1 284.3 741.2 275.2 741.1 266.2C741.1 262.5 741.9 260.8 746.4 261.6C804.6 271.2 862.4 282.3 917.8 303.4C932.5 309 947.2 315 958.5 327C966.6 335.6 971.7 345.8 976.3 356.4C985.9 378.5 993.5 401.3 999.5 424.7C1000.3 427.9 1001.1 430.6 997.4 433.2C975.2 448.9 951.8 461.6 923.9 463.4C904.7 464.7 886.5 460.4 868.6 454.3C834.7 442.7 803.7 425.1 773.7 405.8C772 404.7 770.3 403.8 767.2 403.4C772.4 415.6 777.6 427.9 783 440.1C783.4 441.1 784.8 441.8 785.9 442.3C818.3 458.3 851.1 473.2 886.3 482.2C916.1 489.8 943.9 482.3 971.2 471C977.4 468.4 983.4 465.1 989.4 462.1C991.5 461.1 993.8 459.7 995.7 461.1C998.1 462.8 996 465.2 995.7 467.3C993.2 485.2 983.1 496.5 966.8 504.5C907.8 533.2 845.7 540.4 781.3 534C763.6 532.2 745.9 529.3 728 529.9C699.3 530.8 685.9 544.2 685.1 573C684.4 597.3 692.9 619.2 703.5 640.5C709.6 652.8 717.5 664.2 725 675.7C722 677.6 720.2 675.6 718.3 674.7L650.7 643.5C646.7 641.7 643.4 639.2 640.5 636C625.9 619.8 611.4 603.4 596.6 587.3C575.8 564.9 551.4 548.1 520.6 543.2C496.1 539.3 472 540.8 450.3 554.9C430.3 567.9 424.6 588.1 423 610C421.8 626.3 422.3 642.6 425.4 658.8C425.6 659.7 425.4 660.7 425.4 662.8C417 658.7 409.4 655 401.8 651.3C390.3 645.7 378.9 639.9 367.3 634.6C363.3 632.7 361.5 630.2 360.4 625.8C342.9 554.4 297.4 508.2 229.1 485.1C192.1 472.6 154.1 474.8 119.1 494.7C79.3999 517.3 58.5999 562.8 67.3999 606C76.7999 652.3 112.4 685.8 158.9 691.4C175.1 693.3 191.5 693 207.3 687.4C237.3 676.8 254.1 644.7 246.1 613.4C237.8 581.1 208 560.5 176.7 565.3C161.2 567.7 150.7 577.7 150.1 590.6C149.4 604.9 161.3 615.6 175.4 613.1C178.8 612.5 182.2 611.3 185.6 610.5C197.2 607.8 207.8 613.1 212 623.7C216.2 634.3 212.4 645.8 201.8 651.3C176.1 664.6 147.1 662.7 123.9 640.7C87.2999 606 100.1 545.9 148.5 524.5C195.2 503.9 255.1 524.3 282.6 570.4C325.6 642.3 284.4 730.3 200.6 745.7C115.9 761.2 33.1999 712.1 7.79994 630.4C-6.60006 583.9 -0.30006 538.6 19.7999 494.9C46.1999 437.8 87.7999 393.4 138.6 357.5C203.8 311.4 274.8 277.9 353.4 261.6C406 250.7 459.1 250.7 512.4 252.3C589.8 254.5 664.6 270.4 738.2 293.5L741.1 293.6ZM895.2 319.6C862.9 319.6 836.2 346.1 836 378.4C835.8 411 862.8 438.2 895.2 438.2C927.8 438.2 954.6 411.2 954.4 378.5C954.1 346.2 927.4 319.6 895.2 319.6ZM895 337.3C918.1 337.3 936.7 355.8 936.6 378.7C936.5 401.4 918.1 419.6 895.3 419.6C872.7 419.6 854.2 401.1 854.1 378.5C853.9 355.9 872.3 337.3 895 337.3ZM903.9 382.4C913.8 382.2 922 376.4 921.7 369.7C921.4 363.3 913.5 358 903.9 357.9H903.1C892.9 358.1 885.1 363.6 885.4 370.5C885.7 377.1 894.2 382.6 903.9 382.4Z" fill="white"></path></g><defs><clipPath id="clip0_1_19"><rect width="1000" height="1000" fill="white"></rect></clipPath></defs></svg>