<svg xmlns="http://www.w3.org/2000/svg" width="1000" height="1000" viewBox="0 0 1000 1000" fill="none"><g clip-path="url(#clip0_1_21)"><path d="M1000.2 500.5C999.4 778.1 775.6 1000.7 498 1000C223 999.3 -0.400013 774.9 -1.30004e-05 499.8C0.399987 223.7 224.8 -0.400015 500.5 -1.46732e-05C776.7 0.399985 1000.9 225.1 1000.2 500.5ZM908.4 742.3C903.1 739.6 901 738.3 898.8 737.4C769.6 685 640.5 632.5 511 580.7C503.3 577.6 491.8 579.3 483.6 582.7C374.9 627.1 266.5 672.2 158.1 717.1C137.4 725.7 116.7 734.4 93.8 744C188.2 888.8 318.5 969.7 489.7 973C670.8 976.7 808.5 894.8 908.4 742.3ZM506.8 28C511.8 63.3 516.1 94.2 520.5 125C535.5 231.6 550.3 338.3 566.1 444.8C567.5 454.5 573.5 466 581 471.9C677.8 547.9 775.3 623 872.7 698.3C886 708.6 899.5 718.6 914.9 730.2C996.3 564 995.5 402.4 897.3 247.3C808.1 106.7 675.5 37.2 506.8 28ZM87 732.6C91.6 729.9 93.3 729.2 94.7 728.1C203.3 640.4 312 552.9 420.1 464.7C426.3 459.7 430.6 449.9 431.9 441.7C447.9 340.3 463.2 238.7 478.6 137.1C483.9 101.8 489 66.4 494.7 27.7C326.2 37 193 105.6 103.7 246.2C4.09998 402.9 3.69998 566.1 87 732.6Z" fill="white"></path></g><defs><clipPath id="clip0_1_21"><rect width="1000" height="1000" fill="white"></rect></clipPath></defs></svg>