<svg xmlns="http://www.w3.org/2000/svg" width="1000" height="1000" viewBox="0 0 1000 1000" fill="none"><path d="M585.4 111.9C630 121.1 593.4 142.4 595.2 158C609.2 162.5 626.7 116.3 636.8 161.4C636.9 162 641 162.7 641.5 162.1C656.7 141.8 669.2 160.7 682.8 164.7C716.9 174.8 749.1 171.2 774.2 144.7C801.1 116.2 801.6 81.7 788.9 46.6C777 14 750.6 2.8 718.2 1.5C693.7 0.500002 647.6 10.9 629.7 21.6C624.4 24.7 620.4 21.3 615.7 19.8C606.8 16.9 600 7.5 587.8 10.6C593 30.4 627.2 49.8 584.8 68.6C624 83 605.6 96.9 585.4 111.9ZM679.1 20.9C691.8 14.3 705.1 11.7 719.6 14.8C756.6 22.7 775.2 55.8 767.9 101.5C762.7 134 734.9 154.8 700.7 151.7C688.6 150.6 674 149.4 670 137C664.2 118.9 676.9 126.5 684.9 129.2C689.5 130.7 694.1 132.3 702.2 135C686.7 87.6 724.3 120.9 735.3 109.5C731.6 95.4 687.5 76.9 742.6 68.5C729.4 54.6 697.4 71.2 704.8 38.8C705.5 36 692.4 38.7 685.9 40.3C679.6 41.9 673.6 42.3 671.1 35C668.5 27.7 673.8 23.6 679.1 20.9V20.9ZM650.8 48.6C665.4 47.5 679 68.2 686.6 89.7C686.6 90.2 651.8 120 648.3 117.1C639.6 109.8 626.7 101 626.1 92C624.8 73.8 633.7 49.8 650.8 48.6ZM677.1 732.8C699.9 734.7 710.7 722.3 711.2 701.1C711.9 668.9 692.1 651 661.5 636.7C666.9 660.1 653.8 677.1 652 696.5C650.4 715.1 654.3 730.8 677.1 732.8ZM747.7 405.7C737.8 406.4 730.6 412.9 732.1 423.8C733.3 432.6 739.9 438.2 749 437.3C758 436.4 762.3 429.5 763.8 421.1C761.3 412.6 756.9 405 747.7 405.7ZM455.8 792.1C456.7 805.5 452 807.7 440 802.4C425.5 796 413.1 802.2 407.8 815.4C395.8 845.8 377 863.3 336.3 852.5C357.6 889.9 386.1 887 412.8 882.2C437.4 877.8 457 864.1 461.6 836.5C462.9 828.8 456.7 813.1 471 817.5C506.3 828.3 489.5 802.2 489.2 792C488.8 777.3 471.1 777.2 462.1 774C452.2 770.8 455.3 784.9 455.8 792.1V792.1ZM672.5 849.7C671.9 873.4 693.2 868.2 710.1 871.3C723.5 865.7 748.5 872 747.8 845.9C747.2 823.6 725 826.4 710.8 826.9C695.3 827.5 673.1 826 672.5 849.7ZM931.6 268C895.6 282.8 893.6 290.1 920.9 320.4C930.8 331.4 942.5 340.8 954.2 350C963.9 357.6 972.3 353.4 973.7 342.3C978 309.2 984.3 276 977.3 242.7C965.2 242.3 961.4 250.7 954.8 254.6C947 259.2 939.7 264.6 931.6 268ZM850.6 233.4C846.9 217.9 842.7 194.6 827.3 195.6C793.6 197.9 760 183 726 197.9C711.7 204.2 713.8 209.8 717.1 219.8C726.7 248.6 759.6 269.9 798 269.9C808.8 271.2 822.4 267.6 835.1 262C847.3 256.8 853.9 247.4 850.6 233.4ZM750.7 219.1C777.2 224.2 798.8 228.3 822.3 232.8C796.7 255.6 768.4 250.5 750.7 219.1ZM800.4 155.6C844.4 162.4 886.8 166.6 928 149.3C966.1 133.3 981.1 106.1 974.9 66C972.1 47.8 960.5 30.8 969.3 10.8C973 2.3 963.5 2.7 958.1 1.6C930.4 -3.9 923.7 3.9 923.5 42.5C923.4 53.6 924 65 913.1 72C908.7 74.8 903.1 74.3 899.1 70.8C889 61.9 892 51.1 895.5 40.4C900.7 24.8 902.4 9.5 881.7 4.9C857.2 -0.599998 832.7 0.300002 802.9 10.1C818.6 16.5 828.2 19.6 836.9 24.2C847 29.7 862.5 34.3 860.7 47.2C859.2 57.9 843.6 53.1 834.5 56.2C829.6 57.9 822.9 57.3 820.2 65.5C827 67.8 833.7 69.4 839.8 72.3C854.7 79.3 873.5 82.1 877 102.7C878.3 110.1 875.5 117 868.4 120.3C849.8 128.8 836.2 117.1 819 104.7C823.1 127 818.2 143.3 800.4 155.6ZM936.3 74.9C936.8 70.5 940.6 67.2 944.5 68.4C947.8 69.4 951.3 73.1 952.5 76.3C958.7 93.1 955.4 108.1 940.2 118.2C924.5 128.7 906.6 131.9 887.2 130.1C909.4 116.2 932.9 104.5 936.3 74.9ZM783.2 511.6C763.9 514.5 741.1 509.8 731.8 534.7C748.7 548.8 777.3 555.5 773 584.2C768.3 615.5 736 611.6 717.1 620.7C725.4 638.9 738.1 652.4 758.1 658.1C758.4 654 758.9 650.1 759 646.1C759.4 626.2 764 600.3 785.3 603.9C806 607.5 797.1 632.7 792.8 650.1C790.9 657.6 782.5 670.6 803.1 667.1C808.4 666.2 815.3 674.8 829.8 684.9C816.3 662.9 820.5 652.9 844.6 651.3C826.6 639.8 815.5 632.8 808.4 621.6C803.3 613.4 794.9 603.4 805.1 595C814.3 587.5 824.3 594.7 831.6 601.6C839.5 609.1 846.2 617.9 853.2 626C866.5 612.3 871.3 596.6 863.5 577.9C844.3 580.8 817.9 596.5 810.9 576.8C802 551.9 835 556.5 849 548.3C841.4 527.1 826.1 518.7 805.4 517.3C804.6 529.9 810.5 541.7 806 553.6C803.2 561 801.6 571.1 791.8 570.3C780.6 569.4 779.1 558.5 779 549.7C778.9 537 787 524.9 783.2 511.6ZM254.7 596.4C259.9 604.8 265.8 613.4 268.2 622.8C272.2 638.6 267.6 649.2 248.2 643.5C244.1 642.3 241.1 634.3 236.1 640.8C232.1 646 234.3 651.9 237 657.7C243.9 672 256.1 675.4 269.6 672C288.2 667.4 294.5 652.9 292.3 635.1C289.5 613.2 273.7 598 261.9 580.8C234.8 541.3 206.8 502.3 220.1 444.4C182 477.3 163.4 511.1 165.3 555.7C166.3 578.5 166.7 603.8 129.1 596.3C133 612 141.6 616.6 154 614.4C169.3 611.7 174.7 600.8 176.1 586.5C178.7 560.6 170.3 533.2 186.2 509.2C187.7 538.6 204.4 563.5 204.5 591.8C204.5 602.2 208.9 615.3 193 618.1C187.8 619 182.9 618 184 625.2C184.8 630.4 188.1 634.7 193.3 635.9C213.7 640.7 221.7 628.6 221.4 611.4C221.2 594.5 215.1 578.3 208.9 562.3C199.8 539 195.3 515.1 204.2 489.5C213.8 528.9 234 562.8 254.7 596.4V596.4ZM745.8 735.6C759.9 736.4 771.6 731.2 771.6 714C771.6 693.7 758.9 680 741.3 679.9C722.6 679.8 736.7 703.4 726.6 709.6C723.4 727.6 732.4 734.8 745.8 735.6ZM963.1 221.5C971.1 208.3 974.6 194.6 958.4 179.5C950.2 216.4 924 227.5 893.5 233.2C886.4 234.6 875 233.7 877.5 245.6C879.4 254.6 889.5 256.6 897 255.7C923.1 252.7 948.2 246.1 963.1 221.5ZM932.9 183.6C928.8 175.1 921.5 178.3 914.9 180.2C905.5 182.9 896.1 185.8 886.7 188.4C880.1 190.2 868.4 185.7 871.9 199.6C874.1 208.7 879.4 215.9 896.3 214.8C903.7 214 915.2 208.5 925.7 201C931.4 197 936.6 191.3 932.9 183.6ZM667.9 242.6C674.7 245.9 678.9 236.5 681.5 230.1C686 219.1 694.4 203.1 684.3 197.2C669.1 188.3 651.7 176.9 631.5 182.7C616.1 187.1 604.8 195.9 604.5 217C615.5 213.1 624.4 207.8 633.6 207.3C640.3 206.9 654.8 205.3 650.6 220.1C646 236.5 659.9 238.7 667.9 242.6ZM660.7 362.3C649.8 362.4 641.7 368.1 641.3 380.3C640.8 393.5 648.2 400.1 660.9 402C673.3 400.1 680.8 392.6 680.4 380.2C680.1 368.7 671.8 362.2 660.7 362.3ZM703.9 321.7C690.2 321.1 681.1 330 681.1 344.2C681.1 356.7 688 365 701.5 365.3C716.1 365.6 723.6 358 724.3 343.6C724 330.1 715.6 322.2 703.9 321.7ZM701.7 478C715 477.9 723.8 469.9 724.6 455.6C725.4 439.9 716.4 432.2 701.7 429.1C688 431.6 677.4 438 677.4 453.8C677.4 469.4 687 478.1 701.7 478ZM597.1 250C588.8 250.7 587.3 266.3 588.3 276.1C589.6 289 590.7 312.8 603.1 308.6C619.9 302.8 633.9 308.3 649 307.1C682.3 304.3 700 283.1 696.4 245.2C690.6 252.3 686.9 260.9 680.7 263.6C666.7 269.7 650.2 299.4 637 260C634.5 252.6 610.5 248.9 597.1 250ZM622.1 739.4C631.1 739.7 637 735.5 638.4 726C636.6 714.2 630 705.2 618.2 704.2C605.3 703.1 611.3 715.7 609.2 721.8C605.7 731.9 610.7 739 622.1 739.4ZM649.3 614.1C656.3 619.1 664.7 622.1 671.6 617.1C682.5 609.2 671.8 601.1 668.9 593.6C665.5 584.6 661.4 575.5 674.5 572.2C683 570.1 695.6 570.1 695.6 582C695.5 596.5 702.3 596.5 712 594.6C724.5 592.3 740.3 593 745.4 579.7C748.5 571.6 737 563.6 729.5 560.2C720.5 556.2 713.6 535.3 701.5 551.8C694.9 560.7 690.5 564.5 680.4 561.8C672.6 559.7 668.8 554.7 668.3 546.8C667.7 536.7 672 529.8 681.1 525.1C692.7 519.2 707.8 518.6 716.6 505.6C678.3 487.9 678.4 487.9 663.8 522.1C662.5 525.2 658.7 529.2 655.8 529.4C648.1 529.9 644.9 523 646.2 517.3C655.8 475.9 623.9 467.3 598.1 452.2C583.8 494.1 585.8 500 619.1 520.5C623.3 523.1 627.9 525.4 631.8 528.4C640.3 534.8 647.7 543.5 641.2 553.8C632.4 567.6 624.5 556.1 617.2 550.2C611.8 545.8 606.7 540 598.8 544C591 548 592.6 555.9 592.6 562.6C592.6 576.4 594.8 590.3 586.4 606.5C608.9 604.1 618.6 592.9 628.7 581.7C633.7 576.1 638.6 566.2 647.7 572.4C656 578 647.7 585 645 590.6C640.7 599.8 640 607.5 649.3 614.1ZM593.4 402.9C592 416.3 599.8 424.1 612.2 424.7C623.4 425.2 629.7 417 632.5 406.1C630.7 395.5 625.6 387.3 614 386.3C602.4 385.3 594.6 391 593.4 402.9ZM137.3 297.1C135.1 279 124.3 261.6 100 263.4C60.1 263.4 26.5 294.6 29.4 333.6C31.3 359.6 57.5 350.5 71.9 352.4C99.2 356.1 140.2 320.9 137.3 297.1ZM75.3 337.1C61.9 332.4 54.3 322.2 53.5 308.1C53.1 302.3 54.4 294.9 60.8 293.1C69.1 290.9 68.5 299.5 71.3 304.2C76.8 313.3 83.4 321.8 89.5 330.4C87.4 339.3 80.8 339 75.3 337.1ZM111.2 313.5C96.4 310.4 92.8 297.5 88.6 285.9C88.6 278.5 92.2 272.3 98.6 273.8C113.6 277.3 118 291.7 122.6 303.9C124.7 309.5 118 314.9 111.2 313.5ZM77.5 711.5C61.5 693.1 58.3 673.2 72.1 651.9C84.3 652.6 88.2 672.2 104 663.9C93.2 641.3 97.5 620.4 108.6 598.7C126.7 563.1 146.2 528 158.4 489.7C162.4 477.2 170 464.3 160 448.3C140.2 470.3 140.4 503.7 112.4 521.3C107.4 487.3 136.2 460.9 127.5 424.2C104.1 449.2 107 483 83.5 510.1C78.3 482 91.1 459.8 84.1 434.7C67.1 450.4 71.3 469.2 65.6 484.6C62.6 492.8 63.5 506.3 53.3 506C41 505.6 45.9 492.3 44.5 484C43.3 476.8 48.1 468.6 38.2 458.6C21.5 499.6 19.8 539.1 27.7 579.6C30 591.5 28.4 610.3 47.4 605.8C62.7 602.1 69.6 586.5 68 569.9C67.5 564.2 63.3 558.9 62.1 553.1C60.2 543.8 60.8 533.9 70.9 530.1C80.6 526.4 83.8 536.3 89.3 541.8C102.7 555.3 104 569.1 93.3 584.8C83.2 599.7 73.1 614.5 64.2 630.1C35 680.8 41.2 729.4 81.5 766C89.1 772.9 97.8 790.1 109 778.2C118.3 768.4 115 751.4 104.4 739.6C95.7 730 86 721.3 77.5 711.5ZM292 861.3C303.2 826.4 285.4 777.3 254 758.6C233.2 746.2 211.4 740.8 189.5 756.3C173.7 767.5 169.6 783.7 173.2 801.4C178.3 827.1 194 844.5 219.5 851C236.1 855.2 252.7 852 260.2 834.7C268.5 815.8 261.5 799.4 245 787.7C237.5 782.4 227.2 777.6 221.4 787.3C215.3 797.6 224.8 802.5 233.4 806.9C239.8 810.1 250.2 805.5 253 816.8C242.7 833.7 228.5 831.5 214.1 824.2C199 816.5 193.4 802.6 195.5 786.6C197.2 773 207 766 220.2 764.4C247.9 760.8 278 791.5 279.3 824.2C280.3 852.2 263 867.8 230.7 867.9C193.2 868 169.4 849.8 156.4 814.4C150.8 799.1 155.2 783.2 149.5 765.6C127.4 782.2 121.9 802.6 127.4 826.6C138.6 875.9 191.9 909.4 244.9 901.5C269.3 897.9 284.6 884.4 292 861.3ZM57.6 97.6C58.6 92.3 50.3 92.2 45.5 93.3C30.8 96.7 18.9 102.6 24.2 125.1C39.7 119 54.4 114.3 57.6 97.6V97.6ZM61.8 249.4C42.2 241.8 38.4 223.9 31.9 206.9C18.2 218.6 13.5 231.3 23.8 244.4C32.9 255.8 45.3 261.8 61.8 249.4ZM75.3 413.3C52.6 418 34.6 416.3 17.9 400.6C26 438.5 36.8 440.8 75.3 413.3ZM698.5 753.5C658.8 766.3 620.2 771.9 586.8 747.4C564.4 731 560.9 751.5 555.4 760.1C547.4 772.7 560.2 778.7 570.5 783C586.3 789.6 602.7 788.1 617.1 780.6C638.3 769.6 638 786.8 643.3 797.9C651.5 815.2 636.8 816.1 627.5 818.4C608.7 823.2 589.5 822.4 571.7 814C547.5 802.7 531.5 784.9 530.3 756.7C529.1 729.1 547.8 718.6 569.7 710.8C576 708.5 587.5 707.1 585.4 699.8C574.7 663.4 601.7 679.3 615.7 676.4C623 674.9 640.9 671.6 627.6 663C596.7 643.1 635.7 645.1 635.1 636.2C598.6 618.7 558.1 629.5 527.4 663.8C495.7 699.3 491 751.1 515.7 792C540.1 832.3 585.6 850.7 632.5 839C669.5 830 696.4 796.3 698.5 753.5ZM620.4 879.8C614.4 874.2 619.8 859.6 599.2 864C572.9 869.6 542 873 517.2 852.6C505.8 843.3 497.8 842.2 490.6 858.1C482.5 876 467 887.9 449.1 895.4C432.9 902.1 417.9 907.4 405.6 922.8C390.1 942.2 361 934.4 350.6 911.6C344.4 898 338.1 884.7 320.8 876.8C317.5 916.2 290.7 925.7 255.5 927.1C267.3 942.8 280.1 950.2 293.9 951.1C322 952.9 344.6 966.4 368.3 979.3C414 1004.1 461.7 1006.7 509.6 985.7C521.1 980.6 527.5 981.7 538.3 989.1C560.4 1004.2 583.7 1000.5 609.3 983.4C549 975.9 536 973 522.1 950.7C509.6 930.6 501.2 931.2 483.6 944.9C447.1 973.1 405.8 975.6 374.6 952.2C418.3 953 457.4 946.7 486.8 916.3C506.3 896.1 519.7 897.1 531.1 923C533.5 928.3 537.4 933.2 541.4 937.6C567.8 966.7 593.1 961.8 606.5 925.5C609.8 916.6 608.4 905.1 619.9 900.2C634.1 894.3 627 885.9 620.4 879.8ZM568.8 919.3C557.8 919.5 552.6 912.4 553.3 901.9C553.9 892.6 559.5 887.5 569.1 887.9C578.9 888.3 582.3 895.2 584 903.5C582.3 912.2 578 919.1 568.8 919.3ZM756.2 873.2C732.4 887.8 706.7 893.6 678.9 888.7C656.2 884.7 637.8 904.2 635.2 934.9C633.1 958.6 645.7 971.9 674.1 972.3C705.7 968.5 739 959.8 765.6 934.2C778.3 922 786.8 907.9 785.1 889.3C783.2 869.7 775.8 861.1 756.2 873.2ZM731 935.1C720 942.2 708.2 948.7 694.6 944.3C688.4 942.3 691.7 935.9 692.4 931.3C693.2 916.4 732.1 892.1 744.9 898.9C747.1 900.1 749.1 903.6 749.3 906.2C749.8 919.9 741.4 928.5 731 935.1ZM974.8 519.2C966.1 515 959.8 520.5 953.6 526C945.7 533 941.1 544.4 925.6 546.6C928.9 522.5 942.4 507.4 954.6 491.9C994 442 987.4 402 933.5 370.5C926.5 366.4 919.1 363 915.4 355.5C889.6 302.6 846.6 286.7 791 296.6C785.2 297.6 778.6 297.4 773.2 295.5C752.8 288.6 754.3 300.8 756.4 313.8C767.9 384.4 828.7 418.5 898.3 391.1C921.2 382.1 939 383.2 955 401.1C971.4 419.5 973.6 440.7 962.4 462.3C957.7 471.4 953.3 485.7 939.2 480.6C927.2 476.3 927.4 463.4 928.8 452C930.4 438.3 939.3 424.5 929.8 410C888.3 437 887.7 460.9 927.1 486.8C935.1 492.1 939.7 496.3 933.5 505.5C925 518.1 921.6 533.8 907 543.2C901.8 546.6 900.6 553.5 896.8 544C876.8 493.8 815.8 474.8 802.4 419.6C801.8 417.1 796.6 415.8 792.4 413.2C791.3 419 790.8 422.9 789.9 426.8C780.2 472.5 782 475.4 828.4 487.9C852.1 494.3 868.8 509.7 880.4 530.4C890 547.5 898 565.6 906.9 583.6C936.3 549.6 940.2 549.4 962.2 580C973.8 569.2 979.1 555.4 981.2 540.4C982.4 532.8 984 523.6 974.8 519.2ZM858.1 384.5C843.6 373.9 862.8 369.1 859.5 360.9C850 356.5 843.2 365.4 835.1 366.1C830.2 366.5 811.3 389.9 817.6 357C820.5 342 795.6 358.6 782.2 344.4C802.7 342.2 801.4 328.4 799.5 315.2C814.8 316.1 816.4 331.6 828 334.4C837.1 331.1 828.5 318.8 838 314.8C853.3 311.4 851.2 366.6 879.4 326.5C885.6 340.8 892.3 353.8 906.7 366.8C884.9 366.8 869.7 372.2 858.1 384.5ZM825.6 422.2C854 458.3 881.2 484.6 903 515.2C885.6 481 887 432.7 825.6 422.2ZM862.5 709.1C835.8 699.3 810.9 701.9 792.5 726.2C778.1 745.2 760.2 758.7 737 764.5C724.8 767.5 714.9 772.2 721.9 786.7C728.9 801.1 740.1 795.2 749.8 789.6C768.3 779 781.6 762.5 796.2 747.5C800.6 743 806.2 734.9 813.4 742.5C819.2 748.6 815.5 756 810.2 761C797.2 773.3 784 785.5 770.3 797.1C755.2 809.8 758.2 820.1 772.9 830.4C790.2 842.5 806.4 842.8 821 826.7C830.3 816.4 838.3 804.8 847.5 794.3C852.7 788.3 855.7 774 866.7 782C875.3 788.2 867.9 798.8 863.8 806.4C853.1 826.5 836.3 840.2 816.2 850.4C810.9 853.1 801.1 855.6 807.3 865.3C811.5 871.9 816.1 877.8 826.6 874.1C856.7 863.3 901.3 800.9 901.7 767.4C900.3 740 889.2 718.9 862.5 709.1ZM864.7 755.3C850.7 754.7 840 747.6 838.1 732.5C836.9 722.8 843.5 718.5 852.5 717.2C866.2 720.4 880.1 725.1 882.7 741.1C884.7 752.9 873.4 755.6 864.7 755.3ZM926 601.8C911.2 603.4 905.7 613.1 906.6 626.9C907.2 636.2 906.7 642 894.1 639.8C879.4 637.2 868.4 644.6 865 659.2C861.4 674.8 871.7 683.6 884.3 688.9C903.2 697 918.9 708.1 927.6 732.5C954.8 697.2 971.4 664.4 957.5 623.8C952.6 609.5 942.6 599.9 926 601.8ZM95.8 391.9C100.5 403.8 110.9 405.8 124.7 399.1C114.9 388.6 115.9 375.4 112.9 360.8C95.2 367.1 90.5 378.3 95.8 391.9V391.9ZM423.6 663.3C432.1 668.8 441.3 675 437.6 687C433.9 699.2 422.5 702.4 411.6 704C378.2 708.9 348.7 700.2 325.4 675.6C318.7 681.1 317.7 686.8 317.6 693C316.6 751.3 385.2 790.5 439.6 762.6C464.7 749.7 478.9 729 480.5 700.8C482 674.4 468.4 657.6 444 648.8C430.2 643.8 424.7 629.8 414.5 620.3C400.7 638.9 406.7 652.2 423.6 663.3ZM453.2 702.3C461.1 699.2 461.8 707.8 461.7 715.5C458.5 731.5 447.4 743.2 431.5 748C421.4 751 422.5 740.6 422.3 733.7C421.7 712.7 439 708 453.2 702.3ZM194 436.1C213.5 416.6 234.8 403.5 265.1 408.9C263 415.1 261.4 419.6 260 424.1C244.5 475.5 252.6 522.9 285.1 565.7C289.6 571.6 295.2 581 304.4 574.9C315.9 567.3 307 558.9 302.1 552.1C280.3 521.9 277 486.6 274.3 451.5C273.2 437.1 279.8 420.7 292.7 417.8C304.3 415.2 311 431.4 314.9 442.4C318.3 452 318.4 462.8 320.3 475.2C336.3 466.6 348.1 457.5 350.3 441.2C353.8 415.2 326.3 413.8 313.3 399.7C350.9 389.8 359.8 390.8 391.3 408.1C397.6 363.7 375.1 357.3 302.8 384.7C304.9 366.7 345.9 345 305.6 334.3C276.4 326.5 294.6 363.2 279.8 378.7C277.1 374.9 274.5 371 271.6 367.2C261.1 353.8 251.5 339.2 232.5 337C219.7 335.6 210.6 340.5 209.1 354C207.4 369.8 219.9 364.4 227.7 365.3C245 367.3 259 373.7 268.3 391.3C199.7 392.7 191.4 397.7 194 436.1ZM247.6 726.6C282.7 732.7 302.5 752 305.5 788.2C306 794.8 309.5 801.8 313.2 807.5C325.4 826.3 343.7 832 365.2 829C374.3 827.8 381 822.3 379 813.1C374.5 791.8 361.1 774.6 339.7 773.4C316.3 772.1 310.2 760.2 304.7 741.3C297.7 717.3 284.8 697.3 253.5 697.1C244.6 697.8 230.9 696.3 228 709.5C224.9 723.1 238.6 725 247.6 726.6ZM111.5 220.2C111.4 196.2 98.1 176.5 81.9 177.4C67 178.2 58.5 187.1 58.3 202.6C58.2 220.8 79.4 240.1 97.9 240.1C114.4 240.1 110.3 228.3 111.5 220.2ZM188.8 659.2C181 660.2 175.9 659.6 170.6 653.6C160.4 642.3 140 639.7 138.2 651.3C134.4 676.3 98 684.2 108.8 713.4C111.6 721 119.1 725.2 127.8 726C133.6 726.5 141 725 145 728C160.5 739.5 181.5 745.5 186.8 726C192 707.3 211.9 700 212.3 678.3C208.5 669.1 204 657.2 188.8 659.2ZM176.2 694.1C175.2 702.8 169.1 708.8 159.9 708.2C150.9 707.6 145.5 701.4 146.1 692.1C146.7 682.8 152.7 678.3 162.2 678.1C170.9 679.9 177.2 684.9 176.2 694.1ZM189.5 369.8C189.3 351.5 167.3 323.3 154.3 327.5C138 332.8 136.2 349.4 135.7 364.4C135 384.1 144.3 398.6 164.2 399.7C182.3 400.7 190.1 387.5 189.5 369.8ZM156.7 81.8C170.1 81.7 176.7 62.4 191 69.8C202.9 76 200.1 90.5 203.6 102.6C214.8 91.1 207.9 71.1 226.3 70.3C241.5 69.6 243.4 90.3 258 94.6C245.3 47.6 245.3 47.6 288.6 50.9C281.3 34.9 241.5 34 270.9 1.1C254.9 3 243.7 -1.4 235.7 6C219.2 21.6 204.9 24.8 187.4 6.3C179.2 -2.3 165.4 -0.0999985 153.8 4.2C174.6 35.1 137 30.9 128.5 44.7C175.9 44 175.9 44 156.7 81.8V81.8ZM379.6 446.5C381.4 466.1 370.7 477.9 355.8 487.9C310.6 518.3 310.8 527.9 357 558.5C359.5 560.1 362.1 561.7 364.5 563.4C370.6 568.1 380.3 572.4 374.5 581.8C370.3 588.7 361 586.8 355.5 582.8C332.2 565.4 327.8 585.4 324 599.8C312.7 642.2 346.7 678.1 401 680.1C374 656.1 376.4 631.9 396.1 605.9C407.4 591 415.3 572.9 396.8 558C374.6 540.2 378.6 525.1 394.5 505.2C414.3 480.7 408.9 463.8 379.6 446.5ZM401.6 58.1C404 57.2 406.1 48 404.3 44.9C395.3 29.6 382.8 38.3 366.4 40.7C377.7 55.6 387.3 63.5 401.6 58.1V58.1ZM20.6 71.7C37.9 73.1 51.5 74 65.1 75.4C72.8 76.2 82.8 73.5 86.9 81.6C91.8 91.2 84 98.4 78.1 105.2C63.6 121.6 48.7 137.8 34.6 154.7C31.2 158.7 25.5 164.3 31.7 170.3C36 174.4 41.2 171.7 45.5 169.4C61.4 161.1 77.1 152.4 93.2 144.4C101 140.6 109.1 133.2 118.2 138.6C127.8 144.3 123.2 154.7 122.9 163.3C122.7 168.3 121 173.2 120.4 178.1C119.6 184.2 120 190.3 125.4 194.5C131.9 199.4 136.6 194 141.4 191.1C172 172.6 172 172.5 177 208.7L178.3 223.6C179.3 230.4 179.4 239.2 188.7 238.9C197.3 238.6 198.4 230 199.9 223.3C202.8 210.7 204.6 197.7 208.1 185.3C212 171.8 218.7 162 232 177.9C244.9 193.3 250 184 252.4 171.1C257.1 146 269.1 151.1 283.2 162.7C293.3 170.9 303.1 179.5 313.4 187.4C318.5 191.4 324.2 199.3 331.1 193.6C336.9 188.8 334 180.2 331.9 173.7C327.9 161.4 322.1 149.6 318.3 137.2C315.5 128 304.9 117.8 312 109.7C320.4 100.1 332.3 109.8 342.7 111.9C361.3 115.7 386.7 132.7 397.1 115.3C406.3 100 380 85 367.3 71.7C330.9 33.6 330.6 33.4 377.2 12.6C381.3 10.8 387.6 11.2 387.8 2.2C375.4 2.2 362.7 0.700002 350.6 2.6C334.2 5.1 312.4 4.5 305.9 21.3C300.1 36.3 320.6 45.1 328.6 57.2C334.4 65.9 349.1 73.6 342.2 84.2C333.3 97.7 321 84 310.2 81.4C308.2 81 306.4 79.6 304.4 79.5C297 78.9 289.5 69.5 282.5 77.6C276.8 84.2 280.5 92.9 281.8 100.7C284.4 115.7 300.5 126.6 296 145.1C276 139.8 267.5 117.7 247.1 116.1C238.8 125.5 250.2 143.6 235.8 147.5C223.9 150.7 224.8 129.6 211.9 128C198.5 138 209 159.5 193 170.1C181.2 155.7 190.9 136.1 180 122.8C166.8 127.1 163.9 139.1 156.3 146.6C153.4 149.5 150.1 152.5 146.2 149.4C144.3 147.9 143.2 144.4 143.2 141.7C142.8 129.4 155 112.6 142.4 106C130.8 100 118 116.4 104.5 119.7C101.9 120.4 98.9 119.4 93.3 119C100 101 114.2 93.7 123.6 82.4C133.3 70.7 133.7 62.8 116.1 61.2C109.1 60.5 102 60.9 95.2 59.3C78.2 55.4 75.5 46.8 88.9 35C93.3 31 98.6 28 103.6 24.6C108.4 21.3 115.2 18.5 113.7 11.6C112.2 4.9 104.7 3.7 99.2 3.1C75.2 0.500002 51 -1.5 25.1 2.5C31.7 14.2 41.1 11.7 47.9 15.1C54.8 18.6 65.9 16.7 67.9 25.9C69.8 35.3 59.3 38 53.2 42.6C42.7 50.4 28.9 54.7 20.6 71.7V71.7ZM394.9 170.9C379.1 157.5 363.7 143.3 338.5 132.5C348 159.1 362 175.9 375.8 192.5C381 198.8 386.1 214.5 397.8 204.5C409.4 194.5 406.8 181 394.9 170.9ZM391.1 237.6C362.6 215.3 345 244.7 322.4 255.1C321 247.5 320.2 241.7 318.9 235.9C315.1 218.1 306.6 203.8 287.5 199.9C268.8 196.1 251.7 200.6 238.2 214.8C234.9 218.2 225.6 224.3 233.7 228.3C265.4 244.3 252.1 266 236.6 279.4C215.7 297.5 217 264.9 204.2 256.9C201.6 279.8 196.9 301.7 219.7 312.3C256 329.4 284.9 311 312.9 284.8C323.9 303 322.9 323.3 338.9 334.8C352.4 344.5 366.5 346.4 380.5 337.2C395.5 327.4 385.6 320.5 378.8 310.1C371 298 372.8 279.7 385.2 272.2C399.1 263.8 390 288.5 402.5 289.2C407.4 269.8 408.3 251.1 391.1 237.6ZM259 296.9C257.9 267.2 262.2 239.3 284.6 217.5C285.9 247 281.7 274.9 259 296.9ZM295 284.9C285.8 286.8 284 277.8 286.1 270.9C289.3 260.2 288.7 244.7 302.8 242.8C313.6 241.3 310.3 253.9 312.1 258.4C312.3 273 306.5 282.5 295 284.9ZM362.8 307.9C360.8 312.8 357.9 319.8 350.3 317.3C344.7 315.5 344.8 309.4 345.6 304.8C348.7 286.8 350.3 268.1 367.8 250.1C375.3 273.3 369.8 290.8 362.8 307.9Z" fill="white"></path></svg>