<svg xmlns="http://www.w3.org/2000/svg" width="100pt" height="100pt" viewBox="0 0 100 100"><g><path d="m87.5 56.898h-4.168v-37.25l-16.449-15.48h-46.066c-2.2891 0-4.1484 1.8594-4.1484 4.1484v45.852h-4.168v-45.852c0-4.5859 3.7305-8.3164 8.3164-8.3164h46.891l1.4297 0.56641 17.707 16.668 0.65625 1.5156z"></path><path d="m90.25 100.01h-80.5c-5.375 0-9.75-4.375-9.75-9.75v-44.125l0.75391-1.6055 12.02-9.9648 2.6602 3.207-11.266 9.3438v43.145c0 3.0781 2.5039 5.582 5.582 5.582h80.5c3.0781 0 5.582-2.5039 5.582-5.582v-40.746c0-1.7031-0.76562-3.2969-2.0977-4.3594l-9.168-7.332 2.6055-3.2539 9.168 7.332c2.3281 1.8594 3.6602 4.6367 3.6602 7.6133v40.746c0 5.375-4.375 9.75-9.75 9.75z"></path><path d="m6.4258 96.824-2.4297-3.3828 40.848-29.273c3.0508-2.1758 7.3242-2.1719 10.367 0.003906l40.797 29.27-2.4258 3.3828-40.801-29.27c-1.6094-1.1523-3.8984-1.1523-5.5117 0z"></path><path d="m29.168 20.832h20.832v4.168h-20.832z"></path><path d="m29.168 33.332h41.668v4.168h-41.668z"></path><path d="m29.168 45.832h41.668v4.168h-41.668z"></path><path d="m2.3945 48.738 2.5-3.332 33.422 25.059-2.5 3.332z"></path><path d="m62.145 70.891 34.02-25.473 2.4961 3.3359-34.02 25.473z"></path><path d="m85.418 20.832h-16.668l-2.082-2.082v-16.668h4.1641v14.586h14.586z"></path></g></svg>