<svg xmlns="http://www.w3.org/2000/svg" width="100pt" height="100pt" viewBox="0 0 100 100"><path d="m61.688 60.074c-0.03125-0.003907-0.058594-0.007813-0.089844-0.011719-1.0508-0.085938-1.8477-0.92578-1.8477-1.9531v-1.1367c0.60938-0.44531 1.207-0.91797 1.7656-1.4492 3.1914-3.0391 5.125-7.25 5.4453-11.699 1.0625-0.41406 2.4375-1.5234 3.1836-4.4648 0.47656-1.8789 0.35547-3.4258-0.35547-4.5938-0.23437-0.38281-0.50391-0.67188-0.77344-0.89844 0.53125-1.7188 0.95703-4.3633 1.1445-8.4961 0.23438-5.1523-1.1992-9.3906-4.2578-12.594-5.8516-6.1289-15.496-6.1992-15.902-6.1992s-10.051 0.070313-15.898 6.1914c-3.0625 3.2031-4.4922 7.4375-4.2578 12.594 0.1875 4.1328 0.61328 6.7773 1.1445 8.4961-0.26953 0.22656-0.53906 0.51562-0.77344 0.89844-0.71094 1.1719-0.83203 2.7188-0.35547 4.5938 0.75 2.9531 2.1328 4.0664 3.1992 4.4727 0.48828 5.418 3.2148 10.137 7.1953 13.094v1.1875c0 1.0273-0.79297 1.8672-1.8477 1.9531-15.113 1.25-24.5 9.6562-24.5 21.941l-0.003906 10.105c0 0.72656 0.58984 1.3164 1.3164 1.3164h69.566c0.72656 0 1.3164-0.58984 1.3164-1.3164v-10.098c-0.003906-12.262-9.3555-20.656-24.414-21.934zm-11.688 4.1484-7.1602-5.668c0-0.015626 0.003906-0.027344 0.003906-0.042969 1.9375 0.94922 4.0742 1.5273 6.332 1.6367 0.27734 0.011718 0.55469 0.019531 0.82812 0.019531 2.5078 0 4.9336-0.57422 7.1523-1.6445 0 0.007812 0 0.019531 0.003906 0.027343zm-8.2188-3.1523 6.4961 5.1445-2.5859 4.3047-5.1836-8.4141c0.48828-0.26953 0.91797-0.61719 1.2734-1.0352zm16.438 0c0.35547 0.41797 0.78516 0.76563 1.2734 1.0352l-5.1836 8.4141-2.5859-4.3047zm9.375-22.363c-0.16797 0.66016-0.36328 1.1562-0.56641 1.5469v-3.3711c0.20703-0.10937 0.41797-0.26172 0.62891-0.46484 0.19141 0.54297 0.17969 1.3281-0.0625 2.2891zm-31.602-24.109c5.0625-5.3047 13.922-5.3867 14.008-5.3867 0.089844 0 8.9492 0.082031 14.008 5.3867 2.5391 2.6602 3.7227 6.2422 3.5234 10.645-0.22266 4.9297-0.78125 7.2773-1.2109 8.3789-0.5625-3.3789-2.2148-9.9727-6.9258-9.7344-2.8398 0.11719-5.5859 0.78125-7.3906 1.3203-1.3086 0.39062-2.6914 0.39062-4.0039 0-1.8086-0.53516-4.5547-1.2031-7.3945-1.3164-0.066407-0.003906-0.13281-0.003906-0.19922-0.003906-4.5195 0-6.1719 6.4062-6.7266 9.7383-0.42969-1.1016-0.98438-3.4531-1.2109-8.3789-0.19922-4.4023 0.98828-7.9844 3.5234-10.648zm-3.6562 21.809c0.21094 0.20703 0.42578 0.36328 0.63672 0.47656v3.3672c-0.20312-0.39062-0.39844-0.88672-0.56641-1.543-0.26953-1.0703-0.23828-1.8125-0.070312-2.3008zm3.3008 6.3047c0-0.058594 0.019531-0.10938 0.011719-0.16797-0.003907-0.023438-0.015626-0.039063-0.019532-0.0625-0.003906-0.14062-0.019531-0.27734-0.019531-0.42188v-5.4805c0.011719-0.011719 0.035156-0.019531 0.046875-0.03125 0.23438-0.21875 0.375-0.51562 0.40625-0.83594 0.27734-3.0469 1.7305-9.2891 4.4414-9.1914 2.5703 0.10547 5.0859 0.71875 6.7461 1.2109 1.8008 0.53516 3.707 0.53516 5.5078 0 1.6602-0.49609 4.1797-1.1094 6.7461-1.2109 2.7109-0.066406 4.1602 6.1445 4.4414 9.1914 0.03125 0.31641 0.17188 0.61719 0.40625 0.83594 0.011719 0.011719 0.03125 0.023437 0.046876 0.035156v5.9375c0 4.2109-1.7109 8.2539-4.6953 11.094-2.8438 2.707-6.5273 4.0938-10.395 3.9062-7.4805-0.36719-13.367-6.8164-13.672-14.809zm47.832 48.078h-10.555v-9.3984c0-0.72656-0.58984-1.3164-1.3164-1.3164-0.72656 0-1.3164 0.58984-1.3164 1.3164l-0.003906 9.3984h-40.555v-9.3984c0-0.72656-0.58984-1.3164-1.3164-1.3164s-1.3164 0.58984-1.3164 1.3164v9.3984h-10.555v-8.7852c0-10.578 8.1445-17.887 21.297-19.23l6.7539 10.965c0.23828 0.39062 0.66406 0.625 1.1211 0.625h0.007813c0.46094-0.003906 0.88281-0.24609 1.1211-0.63672l3.1641-5.2695 3.168 5.2734c0.23828 0.39453 0.66016 0.63672 1.1211 0.63672h0.007813c0.45703 0 0.87891-0.23828 1.1211-0.625l6.7539-10.965c13.152 1.3477 21.297 8.6523 21.297 19.23z"></path></svg>