<svg xmlns="http://www.w3.org/2000/svg" width="100pt" height="100pt" viewBox="0 0 100 100"><g><path d="m11 90h78c0.55469 0 1-0.44531 1-1 0-11.734-4.9414-19.145-15.02-22.395 1.6836-10.219 2.2891-19.484 2.2891-24.793 0-17.543-12.23-31.812-27.27-31.812s-27.27 14.27-27.27 31.812c0 5.3008 0.60938 14.551 2.3086 24.789-10.094 3.2461-15.039 10.656-15.039 22.398 0 0.55469 0.44531 1 1 1zm13.73-48.188c0-16.438 11.336-29.812 25.27-29.812s25.27 13.375 25.27 29.812c0 5.1914-0.58984 14.234-2.2266 24.242-3.3008-0.84375-7.0938-1.293-11.379-1.3516l0.003907-7.8789c5.3398-3.8555 9.0391-10.27 9.5234-17.684 0.10547-1.6055-0.36719-3.1406-1.3281-4.3203-1.2617-1.5469-3.7461-3.5898-8.4102-4.5039-4.4648-0.875-5.4922-7.3516-5.5-7.4141-0.074219-0.48828-0.49219-0.84766-0.98438-0.85156h-0.007812c-0.48828 0-0.90625 0.35156-0.98828 0.83594-0.83984 5.1289-9.2695 8.1172-14.773 8.2266-3.9375 0.074219-6.8008 2.1016-8.5078 3.7891-1.2734 1.2578-1.9141 3.0117-1.7539 4.8164 0.63672 7.2344 4.2305 13.375 9.3945 17.105v7.8789c-4.2773 0.058594-8.0625 0.50781-11.359 1.3477-1.6484-10.027-2.2422-19.059-2.2422-24.238zm25.312 16.852c-9.9336 0-18.148-8.2188-19.109-19.125-0.10547-1.1914 0.33203-2.3945 1.168-3.2188 1.4453-1.4297 3.8594-3.1484 7.1406-3.2109 5.1016-0.097656 12.602-2.3711 15.551-6.9453 0.91016 2.375 2.7461 5.418 6.2734 6.1094 4.0781 0.80078 6.1875 2.5117 7.2422 3.8047 0.64062 0.78906 0.95312 1.8242 0.88281 2.9219-0.71875 11.031-9.1328 19.664-19.148 19.664zm-9.707-0.55078c2.9141 1.6328 6.2109 2.5508 9.707 2.5508 3.4492 0 6.7227-0.91797 9.625-2.5469v6.9883c-4.5156 2.5508-14.324 2.9883-19.332 0.011719zm-1.2969 8.5742c5.668 3.5703 16.871 3.0469 21.914 0 18.039 0.070312 26.66 6.8555 27.035 21.312h-75.977c0.375-14.453 8.9922-21.238 27.027-21.312z"></path><path d="m69.703 76.344h-8.3906c-0.55469 0-1 0.44531-1 1s0.44531 1 1 1h8.3906c0.55469 0 1-0.44531 1-1s-0.44922-1-1-1z"></path></g></svg>