<svg xmlns="http://www.w3.org/2000/svg" width="100pt" height="100pt" viewBox="0 0 100 100"><g><path d="m88.312 28.125c-0.007812-0.12109-0.039062-0.23438-0.09375-0.34375-0.0625-0.089844-0.14062-0.16406-0.23438-0.21875l-40.625-21.875c-0.23438-0.125-0.51562-0.125-0.75 0l-25.547 13.578h-0.10938l-15.078 8.125c-0.089844 0.050781-0.17188 0.12109-0.23438 0.20312-0.10938 0.15625-0.16797 0.33984-0.17188 0.53125v43.75c-0.007812 0.046875-0.007812 0.09375 0 0.14062-0.09375 0.71094-0.14062 1.4258-0.14062 2.1406-0.015625 4.6758 1.75 9.1797 4.9375 12.598 3.1875 3.418 7.5586 5.4961 12.223 5.8086 4.6641 0.3125 9.2695-1.1641 12.887-4.125l11.141 6c0.21875 0.10547 0.46875 0.10547 0.6875 0l40.625-21.875c0.25-0.14062 0.40234-0.40234 0.40625-0.6875v-43.75zm-41.438-20.984 39.062 20.984-12.656 6.8125c-0.027344-0.046875-0.066406-0.089844-0.10938-0.125l-37.5-21.625zm14.594 35.156-38.531-22.266 11.094-5.9688 37.844 21.875v17.766l-10 6.7656v-17.5c0.003906-0.27734-0.14453-0.53906-0.39062-0.67188zm-14.594 6.8125-38.984-20.984 13.422-7.2344 37.641 21.734zm-39.969 25c0.011719-4.4688 1.7969-8.75 4.9648-11.902 3.168-3.1523 7.457-4.918 11.926-4.9102s8.75 1.7891 11.906 4.9531 4.9258 7.4531 4.9219 11.922-1.7812 8.7539-4.9453 11.91c-3.1602 3.1602-7.4453 4.9336-11.914 4.9336-4.4688-0.003906-8.7539-1.7812-11.91-4.9453-3.1602-3.1602-4.9336-7.4453-4.9336-11.914zm35.266 0c-0.027344-5.6328-2.6289-10.945-7.0664-14.414s-10.223-4.7148-15.695-3.3828-10.035 5.0977-12.379 10.219v-37.094l39.062 21.031v41.969l-9.5-5.1094c3.5742-3.4492 5.5938-8.2031 5.5938-13.172zm5.4844 18.281v-41.922l12.656-6.7188v18.188c0.007812 0.28906 0.16797 0.55078 0.42188 0.6875 0.24219 0.15234 0.55469 0.15234 0.79688 0l11.609-7.8125c0.22266-0.13672 0.35547-0.37891 0.35938-0.64062v-17.609l13.25-7.125v41.969z"></path><path d="m29.906 68.75c-0.14844-0.14844-0.34766-0.23047-0.55469-0.23047-0.20703 0-0.40625 0.082031-0.55469 0.23047l-5.0312 5.0312-5.0156-5.0312c-0.30469-0.30469-0.80469-0.30469-1.1094 0s-0.30469 0.80469 0 1.1094l5.0312 5.1406-5.0312 5.0312c-0.14844 0.14844-0.23047 0.34766-0.23047 0.55469 0 0.20703 0.082032 0.40625 0.23047 0.55469 0.14453 0.14844 0.33984 0.23438 0.54688 0.23438 0.21094 0 0.41406-0.085938 0.5625-0.23438l5.0156-5.0312 5.0312 5.0312c0.14844 0.14844 0.35156 0.23438 0.5625 0.23438 0.20703-0.003906 0.40234-0.085938 0.54688-0.23438 0.30078-0.30859 0.30078-0.80078 0-1.1094l-5.0312-5.0312 5.0312-5.0156c0.18359-0.15234 0.29297-0.37891 0.29297-0.61719 0-0.23828-0.10938-0.46484-0.29297-0.61719z"></path></g></svg>