<svg xmlns="http://www.w3.org/2000/svg" width="664" height="509" viewBox="0 0 664 509" fill="none"><g clip-path="url(#clip0_1_11)"><path d="M64.9392 26.6887C67.5952 30.0104 70.9152 34.1766 74.3016 38.3428C81.7384 33.7262 87.316 30.2356 92.96 26.745C97.0768 31.5305 100.994 36.4286 105.443 41.0452C106.838 42.5653 109.427 43.9165 111.618 44.198C161.817 49.3776 202.985 71.2783 241.829 96.3318C270.779 114.967 298.07 135.46 326.223 154.94C352.65 173.294 381.468 188.101 414.668 195.758C456.434 205.385 489.634 196.884 513.405 166.256C530.138 144.637 541.492 119.921 554.772 96.3881C570.31 68.9137 591.026 45.4929 623.297 30.686C627.347 28.8281 631.53 26.9139 635.913 25.7316C654.372 20.8898 668.25 31.4179 662.672 47.0693C660.016 54.5009 653.11 61.0317 647.334 67.4499C644.943 70.096 640.627 71.9539 636.776 73.1925C588.902 88.675 560.748 119.527 543.617 158.881C533.258 182.64 518.65 203.471 492.688 217.546C490.364 218.784 488.837 225.09 490.43 226.835C509.686 248.229 512.608 273.677 516.061 298.899C517.588 309.878 517.19 321.081 517.455 332.229C517.854 347.711 525.689 359.928 540.629 368.486C549.858 373.722 553.909 380.027 555.038 389.599C556.034 398.156 561.678 406.263 564.931 414.708C566.658 419.269 568.849 424.11 568.65 428.727C568.318 437.172 565.595 445.617 565.33 454.118C565.13 461.494 562.209 463.52 553.842 462.338C537.176 460.03 528.743 450.403 525.357 438.017C522.369 427.32 521.638 416.06 521.572 405.025C521.506 396.805 519.182 391.006 511.014 385.883C470.51 360.154 440.298 327.556 422.37 287.076C406.302 250.763 376.886 231.339 329.676 233.141C318.853 233.535 307.83 231.339 297.007 229.988C257.831 225.146 225.229 209.776 198.005 185.68C195.946 183.878 193.822 182.133 191.697 180.388C175.495 166.707 175.694 166.932 156.306 177.235C138.71 186.637 119.719 185.342 101.26 180.05C84.9256 175.377 69.056 169.297 53.2528 163.329C43.0936 159.5 36.188 159.895 34.196 170.648C32.8016 178.192 27.0248 179.6 19.256 178.192C8.96402 176.109 -0.199185 170.648 1.48789e-05 162.09C0.199215 154.996 5.31202 145.651 11.8856 141.428C28.6184 130.731 49.0032 130.675 69.056 133.602C76.692 134.785 83.9296 136.192 86.652 128.141C89.4408 119.922 85.5232 113.728 75.8288 111.476C69.9856 110.125 63.2128 109.281 57.5024 110.463C46.3472 112.715 37.9144 110.801 30.544 103.257C26.8256 99.4846 21.3808 96.9511 16.7992 93.7983C8.69842 88.2809 7.50322 82.8198 15.3384 75.7823C20.3184 71.3346 23.1736 65.3105 26.9584 59.9057C28.0208 58.3856 28.6184 56.4714 30.0128 55.2891C40.836 46.3374 51.8584 37.442 64.9392 26.6887Z" fill="white"></path></g><defs><clipPath id="clip0_1_11"><rect width="664" height="563" fill="white" transform="translate(0 -38)"></rect></clipPath></defs></svg>