<svg xmlns="http://www.w3.org/2000/svg" xmlns:xlink="http://www.w3.org/1999/xlink" width="40px" height="40px"><defs><filter id="Filter_0"></filter></defs><g filter="url(#Filter_0)"><path fill-rule="evenodd" fill="rgb(0, 0, 0)" d="M39.333,37.333 L37.333,37.333 L37.333,39.332 C37.333,39.701 37.34,39.999 36.666,39.999 C36.298,39.999 35.999,39.701 35.999,39.332 L35.999,37.333 L27.333,37.333 C27.196,37.333 27.63,37.290 26.951,37.212 C26.649,37.1 26.576,36.586 26.787,36.284 L36.120,22.951 C36.245,22.773 36.448,22.666 36.666,22.666 C37.34,22.666 37.332,22.964 37.333,23.333 L37.333,35.999 L39.333,35.999 C39.701,35.999 39.999,36.298 39.999,36.666 C39.999,37.34 39.701,37.333 39.333,37.333 ZM35.999,25.447 L28.613,35.999 L35.999,35.999 L35.999,25.447 ZM35.805,19.136 C35.737,19.204 35.655,19.255 35.565,19.287 C35.538,19.294 35.511,19.299 35.483,19.303 C35.435,19.318 35.385,19.328 35.334,19.332 C35.328,19.332 35.322,19.332 35.315,19.332 C35.309,19.332 35.303,19.332 35.296,19.332 C35.248,19.326 35.201,19.314 35.155,19.298 C35.128,19.293 35.102,19.286 35.75,19.279 C34.973,19.238 34.883,19.172 34.813,19.87 L31.91,15.366 C30.842,15.108 30.842,14.698 31.91,14.440 C31.347,14.175 31.769,14.167 32.34,14.423 L34.634,17.23 C34.140,8.468 27.229,1.688 18.666,1.356 L18.666,3.333 C18.666,3.701 18.368,3.999 17.999,3.999 C17.631,3.999 17.333,3.701 17.333,3.333 L17.333,1.356 C8.651,1.690 1.690,8.651 1.356,17.333 L3.999,17.333 C4.368,17.333 4.666,17.631 4.666,17.999 C4.666,18.367 4.368,18.666 3.999,18.666 L1.356,18.666 C1.695,27.363 8.675,34.331 17.373,34.654 C17.373,34.654 17.373,34.654 17.373,34.654 C17.741,34.668 18.28,34.977 18.14,35.345 C18.1,35.703 17.706,35.986 17.348,35.986 L17.323,35.986 C7.670,35.627 0.25,27.706 0.9,18.46 C0.8,18.30 0.0,18.16 0.0,17.999 C0.0,17.983 0.9,17.968 0.9,17.952 C0.22,8.48 8.48,0.22 17.952,0.9 C17.969,0.8 17.983,0.0 17.999,0.0 C18.16,0.0 18.30,0.8 18.47,0.9 C27.614,0.23 35.494,7.530 35.970,17.86 L38.635,14.423 C38.893,14.174 39.303,14.174 39.561,14.423 C39.826,14.679 39.833,15.101 39.577,15.366 L35.805,19.136 ZM12.814,12.830 C13.70,12.566 13.492,12.558 13.757,12.814 L17.149,16.206 C17.690,15.964 18.308,15.964 18.849,16.206 L26.13,9.42 C26.274,8.782 26.696,8.782 26.956,9.42 C27.216,9.303 27.216,9.725 26.956,9.985 L19.799,17.143 C20.170,17.904 20.15,18.817 19.413,19.414 C18.815,20.13 17.904,20.169 17.141,19.804 C16.145,19.329 15.724,18.137 16.199,17.142 L12.814,13.756 C12.565,13.498 12.565,13.89 12.814,12.830 ZM17.528,18.470 C17.792,18.722 18.207,18.722 18.471,18.470 C18.471,18.470 18.471,18.470 18.471,18.470 C18.731,18.210 18.731,17.788 18.471,17.527 C18.210,17.267 17.788,17.267 17.528,17.528 C17.268,17.788 17.268,18.210 17.528,18.470 ZM25.733,29.193 C26.698,27.751 26.378,25.806 24.999,24.750 C24.319,24.261 23.503,23.999 22.666,23.999 C20.457,23.999 18.666,25.790 18.666,27.999 C18.666,28.367 18.368,28.666 17.999,28.666 C17.631,28.666 17.333,28.367 17.333,27.999 C17.333,26.882 17.683,25.794 18.335,24.887 C20.54,22.494 23.386,21.948 25.778,23.667 C27.745,25.154 28.205,27.920 26.825,29.963 C26.810,29.985 26.795,30.6 26.778,30.25 L19.440,38.666 L27.333,38.666 C27.701,38.666 27.999,38.964 27.999,39.332 C27.999,39.701 27.701,39.999 27.333,39.999 L17.999,39.999 C17.841,39.999 17.689,39.943 17.568,39.841 C17.288,39.603 17.253,39.182 17.491,38.901 L25.733,29.193 Z"></path></g></svg>