<svg xmlns="http://www.w3.org/2000/svg" width="100" height="100" viewBox="0 0 100 100" fill="none"><path d="M59.2562 11.9908C53.0463 8.16074 45.6875 6.05469 38.0859 6.05469C17.3934 6.05469 0 21.4713 0 41.2109C0 48.1318 2.15 54.7664 6.23398 60.4963L0.528906 78.4076C-0.0738281 80.2996 1.34336 82.2266 3.3209 82.2266C3.77305 82.2266 4.22813 82.1221 4.64805 81.9084L21.998 73.0867C22.7006 73.3893 23.4119 73.6707 24.1305 73.932C20.1135 67.6621 17.9688 60.4648 17.9688 52.9297C17.9688 30.4889 36.8512 13.2367 59.2562 11.9908V11.9908Z" fill="white"></path><path d="M93.766 72.215C97.85 66.4852 100 59.8506 100 52.9297C100 33.1828 82.5992 17.7734 61.9141 17.7734C41.2215 17.7734 23.8281 33.19 23.8281 52.9297C23.8281 72.6766 41.2289 88.0859 61.9141 88.0859C67.4643 88.0859 72.9945 86.9549 78.001 84.8051L95.352 93.6271C96.4049 94.1625 97.6768 94.0131 98.577 93.248C99.4771 92.483 99.8299 91.2521 99.4713 90.1266L93.766 72.215ZM50 55.8594C48.382 55.8594 47.0703 54.5477 47.0703 52.9297C47.0703 51.3117 48.382 50 50 50C51.618 50 52.9297 51.3117 52.9297 52.9297C52.9297 54.5477 51.618 55.8594 50 55.8594ZM61.7188 55.8594C60.1008 55.8594 58.7891 54.5477 58.7891 52.9297C58.7891 51.3117 60.1008 50 61.7188 50C63.3367 50 64.6484 51.3117 64.6484 52.9297C64.6484 54.5477 63.3367 55.8594 61.7188 55.8594ZM73.4375 55.8594C71.8195 55.8594 70.5078 54.5477 70.5078 52.9297C70.5078 51.3117 71.8195 50 73.4375 50C75.0555 50 76.3672 51.3117 76.3672 52.9297C76.3672 54.5477 75.0555 55.8594 73.4375 55.8594Z" fill="#D51243"></path></svg>