<svg xmlns="http://www.w3.org/2000/svg" width="21" height="20" viewBox="0 0 21 20" fill="none"><path d="M19.4739 16.3216C18.9915 15.1989 18.2914 14.1792 17.4127 13.3191C16.5367 12.4566 15.4989 11.7689 14.3568 11.294C14.3466 11.2889 14.3363 11.2864 14.3261 11.2814C15.9193 10.1508 16.955 8.30904 16.955 6.23116C16.955 2.78894 14.1164 0 10.6129 0C7.10949 0 4.27092 2.78894 4.27092 6.23116C4.27092 8.30904 5.30662 10.1508 6.89979 11.2839C6.88956 11.2889 6.87934 11.2915 6.86911 11.2965C5.72345 11.7714 4.69543 12.4523 3.81317 13.3216C2.93529 14.1823 2.23535 15.2019 1.75202 16.3241C1.27719 17.4227 1.0211 18.6006 0.997623 19.794C0.99694 19.8208 1.00173 19.8475 1.0117 19.8724C1.02168 19.8974 1.03664 19.9202 1.0557 19.9394C1.07477 19.9586 1.09755 19.9738 1.12271 19.9842C1.14787 19.9946 1.1749 20 1.2022 20H2.73656C2.84908 20 2.93859 19.9121 2.94114 19.804C2.99229 17.8643 3.78504 16.0477 5.18642 14.6709C6.63639 13.2462 8.56202 12.4623 10.6129 12.4623C12.6639 12.4623 14.5895 13.2462 16.0395 14.6709C17.4408 16.0477 18.2336 17.8643 18.2847 19.804C18.2873 19.9146 18.3768 20 18.4893 20H20.0237C20.051 20 20.078 19.9946 20.1032 19.9842C20.1283 19.9738 20.1511 19.9586 20.1702 19.9394C20.1892 19.9202 20.2042 19.8974 20.2142 19.8724C20.2242 19.8475 20.2289 19.8208 20.2283 19.794C20.2027 18.593 19.9495 17.4246 19.4739 16.3216ZM10.6129 10.5528C9.43916 10.5528 8.33442 10.103 7.50331 9.28643C6.6722 8.46985 6.21445 7.38442 6.21445 6.23116C6.21445 5.07789 6.6722 3.99246 7.50331 3.17588C8.33442 2.3593 9.43916 1.90955 10.6129 1.90955C11.7867 1.90955 12.8915 2.3593 13.7226 3.17588C14.5537 3.99246 15.0114 5.07789 15.0114 6.23116C15.0114 7.38442 14.5537 8.46985 13.7226 9.28643C12.8915 10.103 11.7867 10.5528 10.6129 10.5528Z" fill="black"></path></svg>