<svg xmlns="http://www.w3.org/2000/svg" width="100pt" height="100pt" viewBox="0 0 100 100"><g fill="#974f34"><path d="m90.004 91.668h-0.003906-80c-0.73438 0-1.3828-0.48047-1.5938-1.1836s0.058594-1.4609 0.67188-1.8711l35-23.332c0.55859-0.375 1.2891-0.375 1.8477 0l4.0742 2.7148 4.0742-2.7188c0.55859-0.375 1.2891-0.375 1.8477 0l34.934 23.289c0.48828 0.28906 0.8125 0.82422 0.8125 1.4336 0.003906 0.92188-0.74219 1.668-1.6641 1.668zm-74.5-3.3359h68.992l-29.496-19.664-4.0742 2.7188c-0.55859 0.375-1.2891 0.375-1.8477 0l-4.0781-2.7188z"></path><path d="m50 71.668c-0.31641 0-0.64062-0.089844-0.92188-0.28125l-40-26.668c-0.46484-0.30859-0.74609-0.82812-0.74609-1.3867 0-0.55859 0.27734-1.0781 0.74219-1.3867l13.332-8.8906c0.51172-0.33984 1.168-0.37109 1.7109-0.082032 0.54297 0.28906 0.87891 0.85547 0.87891 1.4688v16.887l25.93 17.285c0.76562 0.51172 0.97266 1.5469 0.46094 2.3125-0.32031 0.48047-0.85156 0.74219-1.3867 0.74219zm-36.996-28.336 8.6641 5.7773v-11.551z"></path><path d="m50 71.668c-0.53906 0-1.0664-0.26172-1.3867-0.74219-0.51172-0.76562-0.30469-1.8008 0.46094-2.3125l25.926-17.281v-16.887c0-0.61328 0.33984-1.1797 0.87891-1.4688 0.54297-0.28906 1.1992-0.25781 1.7109 0.082032l13.332 8.8906c0.46484 0.30859 0.74219 0.82812 0.74219 1.3867 0 0.55859-0.27734 1.0781-0.74219 1.3867l-40 26.668c-0.28125 0.18359-0.60156 0.27734-0.92188 0.27734zm28.332-34.109v11.551l8.6641-5.7773z"></path><path d="m50 71.668c-0.32422 0-0.64453-0.09375-0.92578-0.28125l-26.668-17.777c-0.46484-0.30859-0.74219-0.82812-0.74219-1.3867l0.003907-42.223c0-0.92188 0.74609-1.668 1.668-1.668h53.332c0.92188 0 1.668 0.74609 1.668 1.668v42.223c0 0.55859-0.27734 1.0781-0.74219 1.3867l-26.668 17.777c-0.28125 0.1875-0.60156 0.28125-0.92578 0.28125zm-25-20.336 25 16.668 25-16.668v-39.664h-50z"></path><path d="m90 91.668h-80c-0.92188 0-1.668-0.74609-1.668-1.668v-46.668c0-0.61328 0.33984-1.1797 0.87891-1.4688 0.54297-0.28906 1.1992-0.25781 1.7109 0.082031l39.078 26.051 39.074-26.051c0.51172-0.33984 1.168-0.37109 1.7109-0.082031 0.54297 0.28906 0.87891 0.85547 0.87891 1.4688v46.668c0.003907 0.92188-0.74219 1.668-1.6641 1.668zm-78.332-3.3359h76.668l-0.003907-41.883-37.406 24.938c-0.55859 0.375-1.2891 0.375-1.8477 0l-37.41-24.938z"></path></g></svg>