<svg xmlns="http://www.w3.org/2000/svg" width="100pt" height="100pt" viewBox="0 0 100 100"><path d="m7.8125 23c-0.47656 0.089844-0.82031 0.51172-0.8125 1v44c0 0.55078 0.44922 1 1 1h7.0625c0.5 5.0469 4.7617 9 9.9375 9s9.4375-3.9531 9.9375-9h33.125c0.5 5.0469 4.7617 9 9.9375 9s9.4375-3.9531 9.9375-9h4.0625c0.55078 0 1-0.44922 1-1v-22.531c0.003906-0.21094-0.0625-0.42188-0.1875-0.59375l-9-12.469c-0.19141-0.25781-0.49219-0.41016-0.8125-0.40625h-16v-8c0-0.55078-0.44922-1-1-1h-58-0.09375-0.09375zm1.1875 2h56v42h-30.062c-0.5-5.0469-4.7617-9-9.9375-9s-9.4375 3.9531-9.9375 9h-6.0625zm14.812 4c-0.55078 0.050781-0.95703 0.54297-0.90625 1.0938s0.54297 0.95703 1.0938 0.90625h36c0.26953 0.003906 0.52734-0.10156 0.71484-0.28906 0.19141-0.1875 0.30078-0.44141 0.30078-0.71094s-0.10938-0.52344-0.30078-0.71094c-0.1875-0.1875-0.44531-0.29297-0.71484-0.28906h-36-0.09375-0.09375zm43.188 5h7v15c0 0.55078 0.44922 1 1 1h16v3h-4-0.09375c-0.51562 0.046875-0.91016 0.48047-0.90625 1v6c0 0.55078 0.44922 1 1 1h4v6h-3.0625c-0.5-5.0469-4.7617-9-9.9375-9s-9.4375 3.9531-9.9375 9h-1.0625zm9 0h6.4688l8.5312 11.812v2.1875h-15zm-40.188 1c-0.55078 0.050781-0.95703 0.54297-0.90625 1.0938s0.54297 0.95703 1.0938 0.90625h24c0.26953 0.003906 0.52734-0.10156 0.71484-0.28906 0.19141-0.1875 0.30078-0.44141 0.30078-0.71094s-0.10938-0.52344-0.30078-0.71094c-0.1875-0.1875-0.44531-0.29297-0.71484-0.28906h-24-0.09375-0.09375zm52.188 20h3v4h-3zm-63 5c4.4297 0 8 3.5703 8 8s-3.5703 8-8 8-8-3.5703-8-8 3.5703-8 8-8zm53 0c4.4297 0 8 3.5703 8 8s-3.5703 8-8 8-8-3.5703-8-8 3.5703-8 8-8zm-53 4c-2.1992 0-4 1.8008-4 4s1.8008 4 4 4 4-1.8008 4-4-1.8008-4-4-4zm53 0c-2.1992 0-4 1.8008-4 4s1.8008 4 4 4 4-1.8008 4-4-1.8008-4-4-4zm-53 2c1.1172 0 2 0.88281 2 2s-0.88281 2-2 2-2-0.88281-2-2 0.88281-2 2-2zm53 0c1.1172 0 2 0.88281 2 2s-0.88281 2-2 2-2-0.88281-2-2 0.88281-2 2-2z"></path></svg>