<svg xmlns="http://www.w3.org/2000/svg" width="100pt" height="100pt" viewBox="0 0 100 100"><g><path d="m84.094 86.398h-76.066c-4.3477-0.007813-7.8672-3.5312-7.8711-7.875v-49.172c-0.023438-4.0625 3.0742-7.4688 7.125-7.8281 0.24609-0.03125 0.49609-0.042969 0.74609-0.039063h76.066c0.36719 0 0.73047 0.027344 1.0898 0.074219 3.8828 0.55469 6.7695 3.875 6.7812 7.793v49.172c-0.003906 4.3438-3.5234 7.8672-7.8711 7.875zm-76.066-62.762c-0.17578 0-0.34766 0.007812-0.51953 0.027343-2.9492 0.25-5.2109 2.7266-5.1992 5.6875v49.172c0.003906 3.1562 2.5625 5.7148 5.7188 5.7188h76.066c3.1562-0.003907 5.7148-2.5625 5.7148-5.7188v-49.172c-0.007813-2.832-2.0898-5.2344-4.8945-5.6445-0.26562-0.039062-0.53125-0.058593-0.79687-0.058593z"></path><path d="m91.973 78.516h-1.0859c-0.59375 0-1.0781-0.48047-1.0781-1.0742v-48.09c-0.007813-2.832-2.0898-5.2344-4.8945-5.6445-0.26562-0.039062-0.53125-0.058593-0.79687-0.058593h-75c-0.59766 0-1.0781-0.48438-1.0781-1.0781v-1.0977c-0.019531-4.0625 3.0742-7.4688 7.125-7.832 0.24609-0.027344 0.49609-0.039063 0.74609-0.039063h76.062c0.37109 0 0.74219 0.027344 1.1094 0.082032 3.875 0.55859 6.7539 3.875 6.7617 7.7891v49.168c-0.003906 4.3477-3.5234 7.8711-7.8711 7.875zm0-2.1523c3.1562-0.007812 5.7148-2.5664 5.7188-5.7227v-49.168c-0.007812-2.8438-2.1055-5.25-4.918-5.6523-0.26563-0.042968-0.53125-0.0625-0.80078-0.0625h-76.062c-0.17188 0-0.34766 0.007813-0.51953 0.027344-2.9336 0.28516-5.1797 2.7383-5.1992 5.6875h73.902c0.36719 0.003906 0.73047 0.027344 1.0898 0.078125 3.8867 0.55469 6.7734 3.8789 6.7812 7.8008z"></path><path d="m90.887 46.051h-89.652c-0.59766 0-1.0781-0.48047-1.0781-1.0781v-8.9648c0-0.59375 0.48047-1.0781 1.0781-1.0781h89.652c0.59766 0 1.0781 0.48437 1.0781 1.0781v8.9648c0 0.59766-0.48047 1.0781-1.0781 1.0781zm-88.578-2.1523h87.5v-6.8281h-87.5z"></path><path d="m63.992 77.711c-4.3438 0.03125-8.2461-2.6562-9.7656-6.7266-1.5195-4.0703-0.33203-8.6562 2.9688-11.48 3.3008-2.8242 8.0156-3.2812 11.801-1.1523 0.33984 0.19141 0.55469 0.55469 0.55469 0.94531s-0.21484 0.75391-0.55469 0.94531c-2.5859 1.4453-4.1914 4.1797-4.1914 7.1445 0 2.9648 1.6055 5.6992 4.1914 7.1484 0.33984 0.1875 0.55469 0.55078 0.55469 0.94141 0 0.39063-0.21484 0.75-0.55469 0.94141-1.5312 0.84766-3.2539 1.2891-5.0039 1.293zm0-18.492c-3.2344-0.054688-6.2031 1.7969-7.5703 4.7305-1.3672 2.9336-0.87891 6.3945 1.2461 8.8359s5.4883 3.4023 8.582 2.4531c-2.2891-1.9648-3.6055-4.832-3.6055-7.8516 0-3.0156 1.3164-5.8828 3.6055-7.8477-0.73438-0.21094-1.4961-0.32031-2.2578-0.32031z"></path><path d="m68.473 76.551c-0.18359 0-0.36328-0.042969-0.52344-0.13281-3.2734-1.8281-5.3008-5.2812-5.3008-9.0312 0-3.7461 2.0273-7.1992 5.3008-9.0273 0.32812-0.18359 0.72266-0.18359 1.0508 0 3.2695 1.8281 5.2969 5.2812 5.2969 9.0273 0 3.75-2.0273 7.2031-5.2969 9.0312-0.16016 0.089843-0.34375 0.13281-0.52734 0.13281zm0-15.996c-2.2891 1.5195-3.668 4.082-3.668 6.832 0 2.7461 1.3789 5.3125 3.668 6.8281 2.293-1.5156 3.6719-4.082 3.6719-6.8281 0-2.75-1.3789-5.3125-3.6719-6.832z"></path><path d="m72.953 77.711c-1.75-0.003907-3.4688-0.44531-5-1.293-0.34375-0.19141-0.55469-0.55078-0.55469-0.94141 0-0.39062 0.21094-0.75391 0.55469-0.94141 2.5859-1.4492 4.1914-4.1836 4.1914-7.1484 0-2.9648-1.6055-5.6992-4.1914-7.1445-0.34375-0.19141-0.55469-0.55469-0.55469-0.94531s0.21094-0.75391 0.55469-0.94531c3.7852-2.1289 8.5-1.6719 11.801 1.1562 3.3008 2.8242 4.4883 7.4102 2.9648 11.48-1.5195 4.0703-5.4219 6.7539-9.7656 6.7227zm-2.2617-2.4727c3.3516 0.99609 6.9688-0.24609 9-3.0898 2.0312-2.8477 2.0312-6.6719 0-9.5195s-5.6484-4.0898-9-3.0898c2.2891 1.9648 3.6055 4.832 3.6055 7.8477 0 3.0195-1.3164 5.8867-3.6055 7.8516z"></path><path d="m46.059 57.402h-35.859c-0.59766 0-1.0781-0.48438-1.0781-1.0781 0-0.59766 0.48047-1.0781 1.0781-1.0781h35.859c0.59766 0 1.0781 0.48047 1.0781 1.0781 0 0.59375-0.48047 1.0781-1.0781 1.0781z"></path><path d="m46.059 68.137h-35.859c-0.59766 0-1.0781-0.48047-1.0781-1.0781 0-0.59375 0.48047-1.0742 1.0781-1.0742h35.859c0.59766 0 1.0781 0.48047 1.0781 1.0742 0 0.59766-0.48047 1.0781-1.0781 1.0781z"></path><path d="m37.094 78.879h-26.895c-0.59766 0-1.0781-0.48047-1.0781-1.0781 0-0.59375 0.48047-1.0781 1.0781-1.0781h26.895c0.59766 0 1.0781 0.48438 1.0781 1.0781 0 0.59766-0.48047 1.0781-1.0781 1.0781z"></path><path d="m98.766 41.57h-7.8789c-0.59375 0-1.0781-0.48437-1.0781-1.0781v-9.6562c0-0.59375 0.48438-1.0781 1.0781-1.0781h7.8789c0.59766 0 1.0781 0.48438 1.0781 1.0781v9.6562c0 0.28516-0.11328 0.55859-0.31641 0.76172-0.19922 0.20312-0.47266 0.31641-0.76172 0.31641zm-6.8008-2.1562h5.7266v-7.5156h-5.7266z"></path></g></svg>