<svg xmlns="http://www.w3.org/2000/svg" width="100pt" height="100pt" viewBox="0 0 100 100"><g><path d="m39.434 21.75c4.4609 0 8.0898-3.6328 8.0898-8.0898 0-0.11719-0.027344-0.22656-0.035157-0.34375 9.2422-0.63672 18.277 2.1484 25.531 7.9727 15.836 12.695 18.387 35.902 5.6914 51.734-0.36328 0.45312-0.28906 1.1055 0.16016 1.4648 0.19531 0.15234 0.42188 0.23047 0.65234 0.23047 0.30469 0 0.60937-0.13281 0.81641-0.39062 13.414-16.727 10.715-41.254-6.0117-54.668-7.7266-6.1992-17.355-9.1445-27.207-8.4102-1.0352-3.2852-4.0664-5.6836-7.6836-5.6836-4.4609 0-8.0938 3.6328-8.0938 8.0938-0.003906 4.457 3.6289 8.0898 8.0898 8.0898zm0-14.102c3.3125 0 6.0078 2.6953 6.0078 6.0117 0 3.3125-2.6953 6.0078-6.0078 6.0078-3.3164 0-6.0117-2.6953-6.0117-6.0078 0.003906-3.3203 2.6992-6.0117 6.0117-6.0117z"></path><path d="m25.672 80.34c6.957 5.5781 15.457 8.5508 24.273 8.5508 0.97266 0 1.9531-0.070313 2.9336-0.14062 1.0352 3.2852 4.0703 5.6836 7.6836 5.6836 4.4648 0 8.0938-3.6289 8.0938-8.0938s-3.6328-8.0898-8.0938-8.0898-8.0938 3.6289-8.0938 8.0898c0 0.11719 0.03125 0.22656 0.039062 0.34766-9.2344 0.63672-18.273-2.1523-25.531-7.9727-15.832-12.695-18.387-35.906-5.6914-51.738 0.35938-0.44922 0.28906-1.1055-0.16016-1.4648s-1.1055-0.28516-1.4648 0.16016c-13.414 16.727-10.715 41.25 6.0117 54.668zm34.898-0.007813c3.3125 0 6.0078 2.6992 6.0078 6.0117s-2.6953 6.0117-6.0078 6.0117c-3.3164 0-6.0117-2.6992-6.0117-6.0117 0-3.3164 2.6953-6.0117 6.0117-6.0117z"></path><path d="m50.004 25.914c-0.57422 0-1.043 0.46484-1.043 1.043v23.043c0 0.046875 0.019531 0.085938 0.027343 0.13281 0.007813 0.085938 0.015625 0.17578 0.050781 0.26172 0.035157 0.085938 0.09375 0.16406 0.15234 0.23438 0.023438 0.035156 0.035156 0.070313 0.066406 0.10156l0.007813 0.011719 8.9102 9.1953c0.20312 0.21094 0.47656 0.31641 0.74609 0.31641 0.26172 0 0.52344-0.097656 0.72656-0.29297 0.41406-0.40234 0.42187-1.0586 0.023437-1.4727l-8.6289-8.9062v-22.625c0-0.57812-0.46875-1.043-1.0391-1.043z"></path></g></svg>