<svg xmlns="http://www.w3.org/2000/svg" width="100pt" height="100pt" viewBox="0 0 100 100"><path d="m95.52 7.082-0.20703 33.332c0 0.625-0.20703 1.25-0.73047 1.7695l-52.602 52.504-0.21094 0.10547c-0.9375 0.9375-2.5 0.9375-3.332 0l-33.332-33.332c-0.9375-0.9375-0.9375-2.3945 0-3.332l52.602-52.922c0.41797-0.41797 1.043-0.73047 1.668-0.73047l33.855 0.20703c1.25 0.003906 2.2891 1.0469 2.2891 2.3984zm-19.27 7.3984c2.5 0 4.793 1.043 6.457 2.707 1.668 1.668 2.707 3.957 2.707 6.457s-1.043 4.793-2.707 6.457c-1.668 1.668-3.957 2.707-6.457 2.707s-4.793-1.043-6.457-2.707c-1.668-1.668-2.707-3.8555-2.707-6.457 0-2.5 1.043-4.793 2.707-6.457 1.6641-1.668 3.957-2.707 6.457-2.707zm-35.52 32.602c-0.83203-0.83203-1.668-1.457-2.707-1.875-1.043-0.41797-1.9805-0.73047-3.0195-0.83203-1.043-0.10547-2.082 0.10547-3.0195 0.41797s-1.875 0.9375-2.707 1.7695c-0.83203 0.83203-1.457 1.7695-1.7695 2.707-0.3125 1.043-0.51953 2.082-0.51953 3.0195 0.10547 1.043 0.3125 2.082 0.83203 3.0195 0.41797 1.043 1.043 1.875 1.875 2.707 0.83203 0.83203 1.668 1.457 2.707 1.875 1.043 0.51953 1.9805 0.73047 3.0195 0.83203 1.043 0.10547 2.082-0.10547 3.0195-0.41797 1.043-0.3125 1.875-0.9375 2.707-1.7695 0.83203-0.83203 1.457-1.7695 1.7695-2.8125 0.3125-1.043 0.51953-2.082 0.41797-3.0195-0.10547-1.043-0.3125-2.082-0.73047-3.0195-0.41797-0.82812-1.043-1.7656-1.875-2.6016zm6.0391-17.602-3.332 3.332 6.3555 40.73 3.332-3.332zm20.211 15.414c-0.83203-0.83203-1.668-1.457-2.707-1.875-1.043-0.41797-2.082-0.73047-3.0195-0.83203-1.043-0.10547-2.082 0.10547-3.0195 0.41797s-1.875 0.9375-2.707 1.7695c-0.83203 0.83203-1.457 1.7695-1.7695 2.707-0.3125 1.043-0.51953 2.082-0.41797 3.0195 0.10547 1.043 0.3125 2.082 0.73047 3.0195 0.51953 1.043 1.1445 1.875 1.9805 2.707 0.83203 0.83203 1.668 1.457 2.707 1.875 1.043 0.51953 2.082 0.73047 3.0195 0.83203 1.043 0.10547 2.082-0.10547 3.0195-0.41797s1.875-0.9375 2.707-1.7695c0.83203-0.83203 1.457-1.7695 1.7695-2.8125 0.3125-1.043 0.51953-2.082 0.41797-3.0195-0.10547-0.9375-0.3125-2.082-0.73047-3.0195-0.52344-0.82812-1.1484-1.7656-1.9805-2.6016zm-29.168 5.2109c0.9375 0.9375 1.457 1.9805 1.668 3.0195 0.20703 1.1445-0.10547 2.082-0.83203 2.8125-0.73047 0.73047-1.668 1.043-2.8125 0.83203-1.1445-0.20703-2.1875-0.73047-3.2305-1.7695-0.9375-0.9375-1.457-1.9805-1.7695-3.0195-0.20703-1.1445 0.10547-2.082 0.83203-2.8125 0.73047-0.73047 1.7695-1.043 2.8125-0.9375 1.25 0.3125 2.2891 0.9375 3.332 1.875zm26.25-2.1875c0.9375 0.9375 1.5625 1.9805 1.7695 3.0195 0.20703 1.1445-0.10547 2.082-0.83203 2.8125-0.73047 0.73047-1.668 1.043-2.8125 0.83203-1.1445-0.20703-2.1875-0.73047-3.2305-1.7695-1.0391-0.73047-1.6641-1.7695-1.875-2.918-0.20703-1.1445 0.10547-2.082 0.83203-2.8125 0.73047-0.73047 1.668-1.043 2.8125-0.9375 1.2539 0.21094 2.293 0.83594 3.3359 1.7734z" fill-rule="evenodd"></path></svg>