<svg xmlns="http://www.w3.org/2000/svg" width="100pt" height="100pt" viewBox="0 0 100 100"><path d="m78.125 56.25c0 0.86328-0.69922 1.5625-1.5625 1.5625s-1.5625-0.69922-1.5625-1.5625v-6.25h-14.062c-0.51562 0-0.99609-0.25391-1.2891-0.67969-0.28906-0.42187-0.35547-0.96484-0.16797-1.4453l7.8125-20.312c0.30859-0.80469 1.2148-1.207 2.0195-0.89453 0.80469 0.30859 1.207 1.2148 0.89453 2.0195l-6.9961 18.188h11.789v-7.8125c0-0.86328 0.69922-1.5625 1.5625-1.5625s1.5625 0.69922 1.5625 1.5625v7.8125h3.125c0.86328 0 1.5625 0.69922 1.5625 1.5625s-0.69922 1.5625-1.5625 1.5625h-3.125zm-23.438-53.125c-13.188-0.042969-25.621 6.1211-33.57 16.645-0.52344 0.6875-0.39063 1.668 0.29687 2.1914 0.68359 0.52344 1.6641 0.39062 2.1875-0.29688 6.8281-8.9766 17.199-14.562 28.453-15.324 11.25-0.76172 22.281 3.375 30.254 11.352 7.9766 7.9727 12.113 19.004 11.352 30.254-0.76172 11.254-6.3477 21.625-15.324 28.453-0.33203 0.25-0.54688 0.62109-0.60156 1.0312-0.058594 0.41406 0.050781 0.82812 0.30469 1.1602 0.25 0.32812 0.62109 0.54688 1.0352 0.60156 0.41016 0.054688 0.82812-0.058594 1.1562-0.30859 9.4297-7.1719 15.41-17.98 16.473-29.781 1.0664-11.801-2.8789-23.504-10.871-32.25-7.9922-8.7461-19.297-13.727-31.145-13.727zm20.312 77.188v11.875c-0.003906 2.5859-2.1016 4.6836-4.6875 4.6875-17.812-0.019531-34.891-7.1055-47.488-19.699-12.594-12.598-19.68-29.676-19.699-47.488 0.003906-2.5859 2.1016-4.6836 4.6875-4.6875h11.875c1.9688 0.003906 3.7266 1.2344 4.4023 3.0859l4.9258 13.539c0.54297 1.4883 0.29688 3.1523-0.65625 4.418l-6.0078 8.0078v-0.003906c-0.36328 0.47266-0.42187 1.1133-0.14844 1.6445 5.0586 9.3633 12.742 17.047 22.105 22.105 0.52734 0.27344 1.1719 0.21484 1.6406-0.15234l8.0078-6.0078v0.003906c1.2656-0.95703 2.9297-1.2031 4.418-0.65625l13.539 4.9258c1.8516 0.67578 3.082 2.4336 3.0859 4.4023zm-3.125 0c0-0.65625-0.41016-1.2422-1.0273-1.4688l-13.539-4.9258-0.003906 0.003906c-0.49609-0.17969-1.0469-0.097656-1.4688 0.21875l-8.0078 6.0078v-0.003907c-1.4492 1.0977-3.4023 1.2539-5.0078 0.40234-9.8984-5.3477-18.02-13.469-23.367-23.367-0.85156-1.6055-0.69531-3.5586 0.39844-5.0039l6.0078-8.0078c0.32031-0.42188 0.40234-0.97656 0.21875-1.4727l-4.9258-13.539v-0.003906c-0.22266-0.61719-0.80859-1.0273-1.4648-1.0273h-11.875c-0.86328 0-1.5625 0.69922-1.5625 1.5625 0.019531 16.984 6.7734 33.27 18.785 45.277 12.008 12.012 28.293 18.766 45.277 18.785 0.86328 0 1.5625-0.69922 1.5625-1.5625zm-27.457-35.5c-3.9766 2.7812-8.4805 5.9375-8.4805 11.438 0 0.41406 0.16406 0.8125 0.45703 1.1055s0.69141 0.45703 1.1055 0.45703h15.625c0.86328 0 1.5625-0.69922 1.5625-1.5625s-0.69922-1.5625-1.5625-1.5625h-13.863c0.78906-3 3.793-5.1055 6.9453-7.3125 3.9766-2.7812 8.4805-5.9375 8.4805-11.438 0-5.1758-4.1992-9.375-9.375-9.375s-9.375 4.1992-9.375 9.375c0 0.86328 0.69922 1.5625 1.5625 1.5625s1.5625-0.69922 1.5625-1.5625c0-3.4531 2.7969-6.25 6.25-6.25s6.25 2.7969 6.25 6.25c0 3.875-3.4727 6.3047-7.1445 8.875z" fill="#71a397"></path></svg>